<svg xmlns="http://www.w3.org/2000/svg" xmlns:xlink="http://www.w3.org/1999/xlink" width="1300" height="789.8"><g transform="translate(-60 -39.99999999999999)"><path d="M80 400h1260v60H80z" stroke="#000" stroke-width="2" fill="#fff"/><use xlink:href="#a" transform="matrix(1,0,0,1,85,405) translate(293.32499999999993 28.6)"/><use xlink:href="#b" transform="matrix(1,0,0,1,85,405) translate(401.32499999999993 28.6)"/><use xlink:href="#c" transform="matrix(1,0,0,1,85,405) translate(479.2749999999999 28.6)"/><use xlink:href="#d" transform="matrix(1,0,0,1,85,405) translate(571.125 28.6)"/><use xlink:href="#e" transform="matrix(1,0,0,1,85,405) translate(627.0749999999999 28.6)"/><use xlink:href="#f" transform="matrix(1,0,0,1,85,405) translate(656.0249999999999 28.6)"/><use xlink:href="#g" transform="matrix(1,0,0,1,85,405) translate(719.925 28.6)"/><use xlink:href="#h" transform="matrix(1,0,0,1,85,405) translate(744.925 28.6)"/><use xlink:href="#e" transform="matrix(1,0,0,1,85,405) translate(807.875 28.6)"/><use xlink:href="#i" transform="matrix(1,0,0,1,85,405) translate(836.825 28.6)"/><use xlink:href="#j" transform="matrix(1,0,0,1,85,405) translate(880.7750000000001 28.6)"/><path d="M80 190.2h280V280H80z" stroke="#000" stroke-width="2" fill="#fff"/><use xlink:href="#k" transform="matrix(1,0,0,1,85,195.2) translate(5.125 22)"/><use xlink:href="#l" transform="matrix(1,0,0,1,85,195.2) translate(91.075 22)"/><use xlink:href="#m" transform="matrix(1,0,0,1,85,195.2) translate(105.075 22)"/><use xlink:href="#n" transform="matrix(1,0,0,1,85,195.2) translate(179.925 22)"/><use xlink:href="#o" transform="matrix(1,0,0,1,85,195.2) translate(8.625 43.6)"/><use xlink:href="#p" transform="matrix(1,0,0,1,85,195.2) translate(33.625 43.6)"/><use xlink:href="#q" transform="matrix(1,0,0,1,85,195.2) translate(61.575 43.6)"/><use xlink:href="#r" transform="matrix(1,0,0,1,85,195.2) translate(111.525 43.6)"/><use xlink:href="#s" transform="matrix(1,0,0,1,85,195.2) translate(150.525 43.6)"/><use xlink:href="#t" transform="matrix(1,0,0,1,85,195.2) translate(251.375 43.6)"/><use xlink:href="#u" transform="matrix(1,0,0,1,85,195.2) translate(91.07499999999999 65.2)"/><path d="M710 400v-60H220v-60" stroke="#000" stroke-width="2" fill="none"/><path d="M224.64 294.27h-9.28L220 280z"/><path d="M226 295.27h-12l4.95-15.27h2.1zm-9.26-2h6.52L220 283.24z"/><path d="M80 60h280v89.8H80z" stroke="#000" stroke-width="2" fill="#fff"/><use xlink:href="#v" transform="matrix(1,0,0,1,85,65) translate(21.625 22)"/><use xlink:href="#w" transform="matrix(1,0,0,1,85,65) translate(104.525 22)"/><use xlink:href="#x" transform="matrix(1,0,0,1,85,65) translate(228.375 22)"/><use xlink:href="#y" transform="matrix(1,0,0,1,85,65) translate(27.674999999999983 43.6)"/><use xlink:href="#z" transform="matrix(1,0,0,1,85,65) translate(90.57499999999999 43.6)"/><use xlink:href="#A" transform="matrix(1,0,0,1,85,65) translate(124.57499999999999 43.6)"/><use xlink:href="#B" transform="matrix(1,0,0,1,85,65) translate(143.52499999999998 43.6)"/><use xlink:href="#C" transform="matrix(1,0,0,1,85,65) translate(89.55 65.2)"/><path d="M220 190.2v-39.4" stroke="#000" stroke-width="2" fill="none"/><path d="M224.64 165.07h-9.28L220 150.8z"/><path d="M226 166.07h-12l5.27-16.27h1.46zm-9.26-2h6.52L220 154.04z"/><path d="M400 190h300v89.8H400z" stroke="#000" stroke-width="2" fill="#fff"/><use xlink:href="#D" transform="matrix(1,0,0,1,405,195) translate(9.724999999999994 14.4)"/><use xlink:href="#g" transform="matrix(1,0,0,1,405,195) translate(79.625 14.4)"/><use xlink:href="#E" transform="matrix(1,0,0,1,405,195) translate(104.625 14.4)"/><use xlink:href="#F" transform="matrix(1,0,0,1,405,195) translate(202.42499999999998 14.4)"/><use xlink:href="#G" transform="matrix(1,0,0,1,405,195) translate(13.625 36)"/><use xlink:href="#H" transform="matrix(1,0,0,1,405,195) translate(38.625 36)"/><use xlink:href="#I" transform="matrix(1,0,0,1,405,195) translate(120.525 36)"/><use xlink:href="#J" transform="matrix(1,0,0,1,405,195) translate(195.47500000000002 36)"/><use xlink:href="#K" transform="matrix(1,0,0,1,405,195) translate(2.6000000000000227 57.6)"/><use xlink:href="#L" transform="matrix(1,0,0,1,405,195) translate(91.55000000000003 57.6)"/><use xlink:href="#A" transform="matrix(1,0,0,1,405,195) translate(175.55 57.6)"/><use xlink:href="#M" transform="matrix(1,0,0,1,405,195) translate(194.5 57.6)"/><use xlink:href="#N" transform="matrix(1,0,0,1,405,195) translate(278.4 57.6)"/><use xlink:href="#O" transform="matrix(1,0,0,1,405,195) translate(56.64999999999999 79.20000000000002)"/><use xlink:href="#P" transform="matrix(1,0,0,1,405,195) translate(122.5 79.20000000000002)"/><use xlink:href="#Q" transform="matrix(1,0,0,1,405,195) translate(137.5 79.20000000000002)"/><use xlink:href="#R" transform="matrix(1,0,0,1,405,195) translate(165.45 79.20000000000002)"/><path d="M710 400v-60.1H550v-60.1" stroke="#000" stroke-width="2" fill="none"/><path d="M554.64 294.07h-9.28L550 279.8z"/><path d="M556 295.07h-12l4.95-15.27h2.1zm-9.26-2h6.52L550 283.04z"/><path d="M400 60h300v100H400z" stroke="#000" stroke-width="2" fill="#fff"/><use xlink:href="#S" transform="matrix(1,0,0,1,405,65) translate(32.14999999999999 27)"/><use xlink:href="#T" transform="matrix(1,0,0,1,405,65) translate(131 27)"/><use xlink:href="#G" transform="matrix(1,0,0,1,405,65) translate(213.85000000000002 27)"/><use xlink:href="#U" transform="matrix(1,0,0,1,405,65) translate(238.85000000000002 27)"/><use xlink:href="#V" transform="matrix(1,0,0,1,405,65) translate(38.099999999999994 48.6)"/><use xlink:href="#l" transform="matrix(1,0,0,1,405,65) translate(115 48.6)"/><use xlink:href="#G" transform="matrix(1,0,0,1,405,65) translate(129 48.6)"/><use xlink:href="#W" transform="matrix(1,0,0,1,405,65) translate(154 48.6)"/><use xlink:href="#X" transform="matrix(1,0,0,1,405,65) translate(178 48.6)"/><use xlink:href="#Y" transform="matrix(1,0,0,1,405,65) translate(99.55 70.2)"/><path d="M550 190v-29" stroke="#000" stroke-width="2" fill="none"/><path d="M554.64 175.27h-9.28L550 161z"/><path d="M556 176.27h-12l5.27-16.27h1.46zm-9.26-2h6.52L550 164.24z"/><path d="M760 200h220v80H760z" stroke="#000" stroke-width="2" fill="#fff"/><use xlink:href="#Z" transform="matrix(1,0,0,1,764.9999999999999,205) translate(30.07499999999999 17)"/><use xlink:href="#aa" transform="matrix(1,0,0,1,764.9999999999999,205) translate(159.925 17)"/><use xlink:href="#b" transform="matrix(1,0,0,1,764.9999999999999,205) translate(12.049999999999997 38.6)"/><use xlink:href="#ab" transform="matrix(1,0,0,1,764.9999999999999,205) translate(90 38.6)"/><use xlink:href="#t" transform="matrix(1,0,0,1,764.9999999999999,205) translate(187.95 38.6)"/><use xlink:href="#ac" transform="matrix(1,0,0,1,764.9999999999999,205) translate(62.05 60.2)"/><path d="M720 60h160v100H720z" stroke="#000" stroke-width="2" fill="#fff"/><use xlink:href="#ad" transform="matrix(1,0,0,1,725,65) translate(23.549999999999997 27)"/><use xlink:href="#ae" transform="matrix(1,0,0,1,725,65) translate(103.5 27)"/><use xlink:href="#af" transform="matrix(1,0,0,1,725,65) translate(26.574999999999996 48.6)"/><use xlink:href="#ag" transform="matrix(1,0,0,1,725,65) translate(35.5 70.2)"/><path d="M710 400v-60h160v-60" stroke="#000" stroke-width="2" fill="none"/><path d="M874.64 294.27h-9.28L870 280z"/><path d="M876 295.27h-12l4.95-15.27h2.1zm-9.26-2h6.52L870 283.24z"/><path d="M870 200v-20h-70v-20" stroke="#000" stroke-width="2" fill="none"/><path d="M804.64 174.27h-9.28L800 160z"/><path d="M806 175.27h-12l4.95-15.27h2.1zm-9.26-2h6.52L800 163.24z"/><path d="M900 60h220v100H900z" stroke="#000" stroke-width="2" fill="#fff"/><g><use xlink:href="#ah" transform="matrix(1,0,0,1,905,65) translate(8.724999999999994 16.19999999999999)"/><use xlink:href="#o" transform="matrix(1,0,0,1,905,65) translate(87.525 16.19999999999999)"/><use xlink:href="#ai" transform="matrix(1,0,0,1,905,65) translate(112.525 16.19999999999999)"/><use xlink:href="#A" transform="matrix(1,0,0,1,905,65) translate(49.125 37.79999999999999)"/><use xlink:href="#aj" transform="matrix(1,0,0,1,905,65) translate(68.075 37.79999999999999)"/><use xlink:href="#ak" transform="matrix(1,0,0,1,905,65) translate(39.099999999999994 59.39999999999999)"/><use xlink:href="#l" transform="matrix(1,0,0,1,905,65) translate(137.89999999999998 59.39999999999999)"/><use xlink:href="#U" transform="matrix(1,0,0,1,905,65) translate(151.89999999999998 59.39999999999999)"/><use xlink:href="#al" transform="matrix(1,0,0,1,905,65) translate(24.625 81)"/><use xlink:href="#P" transform="matrix(1,0,0,1,905,65) translate(112.47500000000001 81)"/><use xlink:href="#am" transform="matrix(1,0,0,1,905,65) translate(127.47500000000001 81)"/></g><path d="M870 200v-20h140v-20" stroke="#000" stroke-width="2" fill="none"/><path d="M1014.64 174.27h-9.28L1010 160z"/><path d="M1016 175.27h-12l4.95-15.27h2.1zm-9.26-2h6.52l-3.26-10.03z"/><path d="M1020 200h228v80h-228z" stroke="#000" stroke-width="2" fill="#fff"/><g><use xlink:href="#ah" transform="matrix(1,0,0,1,1025,205) translate(3.6999999999999886 17)"/><use xlink:href="#o" transform="matrix(1,0,0,1,1025,205) translate(82.5 17)"/><use xlink:href="#A" transform="matrix(1,0,0,1,1025,205) translate(107.5 17)"/><use xlink:href="#an" transform="matrix(1,0,0,1,1025,205) translate(126.45 17)"/><use xlink:href="#g" transform="matrix(1,0,0,1,1025,205) translate(23.075000000000003 38.6)"/><use xlink:href="#b" transform="matrix(1,0,0,1,1025,205) translate(48.075 38.6)"/><use xlink:href="#ao" transform="matrix(1,0,0,1,1025,205) translate(126.025 38.6)"/><use xlink:href="#ap" transform="matrix(1,0,0,1,1025,205) translate(171.97500000000002 38.6)"/><use xlink:href="#q" transform="matrix(1,0,0,1,1025,205) translate(22.125 60.2)"/><use xlink:href="#g" transform="matrix(1,0,0,1,1025,205) translate(72.075 60.2)"/><use xlink:href="#A" transform="matrix(1,0,0,1,1025,205) translate(97.075 60.2)"/><use xlink:href="#aq" transform="matrix(1,0,0,1,1025,205) translate(116.025 60.2)"/></g><path d="M1160 60h180v100h-180z" stroke="#000" stroke-width="2" fill="#fff"/><g><use xlink:href="#ar" transform="matrix(1,0,0,1,1165,65) translate(7.125 16.19999999999999)"/><use xlink:href="#as" transform="matrix(1,0,0,1,1165,65) translate(44.075 16.19999999999999)"/><use xlink:href="#at" transform="matrix(1,0,0,1,1165,65) translate(32.025 37.79999999999999)"/><use xlink:href="#au" transform="matrix(1,0,0,1,1165,65) translate(124.025 37.79999999999999)"/><use xlink:href="#av" transform="matrix(1,0,0,1,1165,65) translate(19.049999999999997 59.39999999999999)"/><use xlink:href="#l" transform="matrix(1,0,0,1,1165,65) translate(123 59.39999999999999)"/><use xlink:href="#au" transform="matrix(1,0,0,1,1165,65) translate(137 59.39999999999999)"/><use xlink:href="#aw" transform="matrix(1,0,0,1,1165,65) translate(66 81)"/></g><path d="M710 400v-60h424v-60" stroke="#000" stroke-width="2" fill="none"/><path d="M1138.64 294.27h-9.28L1134 280z"/><path d="M1140 295.27h-12l4.95-15.27h2.1zm-9.26-2h6.52l-3.26-10.03z"/><path d="M1134 200v-20h116v-20" stroke="#000" stroke-width="2" fill="none"/><path d="M1254.64 174.27h-9.28L1250 160z"/><path d="M1256 175.27h-12l4.95-15.27h2.1zm-9.26-2h6.52l-3.26-10.03z"/><path d="M140 520h240v100H140z" stroke="#000" stroke-width="2" fill="#fff"/><g><use xlink:href="#ad" transform="matrix(1,0,0,1,145,525) translate(18.07499999999999 37.8)"/><use xlink:href="#ax" transform="matrix(1,0,0,1,145,525) translate(98.02499999999999 37.8)"/><use xlink:href="#ay" transform="matrix(1,0,0,1,145,525) translate(201.925 37.8)"/><use xlink:href="#az" transform="matrix(1,0,0,1,145,525) translate(4.625 59.4)"/><use xlink:href="#o" transform="matrix(1,0,0,1,145,525) translate(67.525 59.4)"/><use xlink:href="#aA" transform="matrix(1,0,0,1,145,525) translate(92.525 59.4)"/><use xlink:href="#Q" transform="matrix(1,0,0,1,145,525) translate(141.525 59.4)"/><use xlink:href="#aB" transform="matrix(1,0,0,1,145,525) translate(169.475 59.4)"/></g><path d="M140 700h240v100H140z" stroke="#000" stroke-width="2" fill="#fff"/><g><use xlink:href="#aC" transform="matrix(1,0,0,1,145,705) translate(7.125 27)"/><use xlink:href="#aD" transform="matrix(1,0,0,1,145,705) translate(135.925 27)"/><use xlink:href="#P" transform="matrix(1,0,0,1,145,705) translate(4.174999999999997 48.6)"/><use xlink:href="#aE" transform="matrix(1,0,0,1,145,705) translate(19.174999999999997 48.6)"/><use xlink:href="#g" transform="matrix(1,0,0,1,145,705) translate(65.025 48.6)"/><use xlink:href="#A" transform="matrix(1,0,0,1,145,705) translate(90.02499999999999 48.6)"/><use xlink:href="#aF" transform="matrix(1,0,0,1,145,705) translate(108.975 48.6)"/><use xlink:href="#aa" transform="matrix(1,0,0,1,145,705) translate(205.825 48.6)"/><use xlink:href="#Q" transform="matrix(1,0,0,1,145,705) translate(52.599999999999994 70.2)"/><use xlink:href="#aG" transform="matrix(1,0,0,1,145,705) translate(80.55 70.2)"/></g><path d="M440 520h220v120H440z" stroke="#000" stroke-width="2" fill="#fff"/><g><use xlink:href="#aH" transform="matrix(1,0,0,1,445,525) translate(26.625 15.399999999999993)"/><use xlink:href="#aI" transform="matrix(1,0,0,1,445,525) translate(113.475 15.399999999999993)"/><use xlink:href="#aJ" transform="matrix(1,0,0,1,445,525) translate(31.125 36.99999999999999)"/><use xlink:href="#aK" transform="matrix(1,0,0,1,445,525) translate(123.975 36.99999999999999)"/><use xlink:href="#aL" transform="matrix(1,0,0,1,445,525) translate(164.925 36.99999999999999)"/><use xlink:href="#aM" transform="matrix(1,0,0,1,445,525) translate(4.674999999999997 58.599999999999994)"/><use xlink:href="#g" transform="matrix(1,0,0,1,445,525) translate(68.575 58.599999999999994)"/><use xlink:href="#A" transform="matrix(1,0,0,1,445,525) translate(93.575 58.599999999999994)"/><use xlink:href="#aj" transform="matrix(1,0,0,1,445,525) translate(112.525 58.599999999999994)"/><use xlink:href="#aN" transform="matrix(1,0,0,1,445,525) translate(52.75 80.20000000000002)"/><use xlink:href="#aO" transform="matrix(1,0,0,1,445,525) translate(113.25 80.20000000000002)"/><use xlink:href="#aP" transform="matrix(1,0,0,1,445,525) translate(54.599999999999994 101.80000000000001)"/></g><path d="M760 520h160v120H760z" stroke="#000" stroke-width="2" fill="#fff"/><g><use xlink:href="#aQ" transform="matrix(1,0,0,1,765,525) translate(5.099999999999994 26.19999999999999)"/><use xlink:href="#g" transform="matrix(1,0,0,1,765,525) translate(27.099999999999994 26.19999999999999)"/><use xlink:href="#aj" transform="matrix(1,0,0,1,765,525) translate(52.099999999999994 26.19999999999999)"/><use xlink:href="#aR" transform="matrix(1,0,0,1,765,525) translate(11.5 47.79999999999999)"/><use xlink:href="#aS" transform="matrix(1,0,0,1,765,525) translate(83.5 47.79999999999999)"/><use xlink:href="#x" transform="matrix(1,0,0,1,765,525) translate(118.5 47.79999999999999)"/><use xlink:href="#aT" transform="matrix(1,0,0,1,765,525) translate(24.025 69.39999999999999)"/><use xlink:href="#P" transform="matrix(1,0,0,1,765,525) translate(88.025 69.39999999999999)"/><use xlink:href="#aU" transform="matrix(1,0,0,1,765,525) translate(103.025 69.39999999999999)"/><use xlink:href="#aV" transform="matrix(1,0,0,1,765,525) translate(38.525 91)"/></g><path d="M760 680h160v120H760z" stroke="#000" stroke-width="2" fill="#fff"/><g><use xlink:href="#aW" transform="matrix(1,0,0,1,765,685) translate(5.549999999999997 15.399999999999993)"/><use xlink:href="#aX" transform="matrix(1,0,0,1,765,685) translate(41.5 15.399999999999993)"/><use xlink:href="#g" transform="matrix(1,0,0,1,765,685) translate(0.04999999999999716 36.99999999999999)"/><use xlink:href="#aY" transform="matrix(1,0,0,1,765,685) translate(25.049999999999997 36.99999999999999)"/><use xlink:href="#aa" transform="matrix(1,0,0,1,765,685) translate(129.95 36.99999999999999)"/><use xlink:href="#aZ" transform="matrix(1,0,0,1,765,685) translate(2.125 58.599999999999994)"/><use xlink:href="#ba" transform="matrix(1,0,0,1,765,685) translate(111.92500000000001 58.599999999999994)"/><use xlink:href="#h" transform="matrix(1,0,0,1,765,685) translate(24.049999999999997 80.20000000000002)"/><use xlink:href="#g" transform="matrix(1,0,0,1,765,685) translate(87 80.20000000000002)"/><use xlink:href="#bb" transform="matrix(1,0,0,1,765,685) translate(112 80.20000000000002)"/><use xlink:href="#bc" transform="matrix(1,0,0,1,765,685) translate(28.6 101.80000000000001)"/></g><path d="M1020 520h160v120h-160z" stroke="#000" stroke-width="2" fill="#fff"/><g><use xlink:href="#bd" transform="matrix(1,0,0,1,1025,525) translate(16.099999999999994 37)"/><use xlink:href="#W" transform="matrix(1,0,0,1,1025,525) translate(44.05 37)"/><use xlink:href="#be" transform="matrix(1,0,0,1,1025,525) translate(68.05 37)"/><use xlink:href="#bf" transform="matrix(1,0,0,1,1025,525) translate(6.074999999999989 58.6)"/><use xlink:href="#bg" transform="matrix(1,0,0,1,1025,525) translate(28.049999999999997 80.20000000000002)"/><use xlink:href="#bh" transform="matrix(1,0,0,1,1025,525) translate(47 80.20000000000002)"/><use xlink:href="#g" transform="matrix(1,0,0,1,1025,525) translate(81 80.20000000000002)"/><use xlink:href="#bi" transform="matrix(1,0,0,1,1025,525) translate(106 80.20000000000002)"/></g><path d="M1020 670.2h160v139.6h-160z" stroke="#000" stroke-width="2" fill="#fff"/><g><use xlink:href="#bd" transform="matrix(1,0,0,1,1025,675.2) translate(37.55 14.600000000000003)"/><use xlink:href="#bj" transform="matrix(1,0,0,1,1025,675.2) translate(65.5 14.600000000000003)"/><use xlink:href="#bk" transform="matrix(1,0,0,1,1025,675.2) translate(24.525 36.2)"/><use xlink:href="#bl" transform="matrix(1,0,0,1,1025,675.2) translate(4.099999999999994 57.800000000000004)"/><use xlink:href="#bm" transform="matrix(1,0,0,1,1025,675.2) translate(121.89999999999999 57.800000000000004)"/><use xlink:href="#bn" transform="matrix(1,0,0,1,1025,675.2) translate(0.625 79.40000000000002)"/><use xlink:href="#bo" transform="matrix(1,0,0,1,1025,675.2) translate(74.525 79.40000000000002)"/><use xlink:href="#aK" transform="matrix(1,0,0,1,1025,675.2) translate(3.5749999999999886 101.00000000000001)"/><use xlink:href="#A" transform="matrix(1,0,0,1,1025,675.2) translate(44.52499999999999 101.00000000000001)"/><use xlink:href="#h" transform="matrix(1,0,0,1,1025,675.2) translate(63.474999999999994 101.00000000000001)"/><use xlink:href="#aa" transform="matrix(1,0,0,1,1025,675.2) translate(126.425 101.00000000000001)"/><use xlink:href="#aV" transform="matrix(1,0,0,1,1025,675.2) translate(38.525 122.60000000000001)"/></g><path d="M260 520v-30h450v-30" stroke="#000" stroke-width="2" fill="none"/><path d="M714.64 474.27h-9.28L710 460z"/><path d="M716 475.27h-12l4.95-15.27h2.1zm-9.26-2h6.52L710 463.24z"/><path d="M550 520v-30h160v-30" stroke="#000" stroke-width="2" fill="none"/><path d="M714.64 474.27h-9.28L710 460z"/><path d="M716 475.27h-12l4.95-15.27h2.1zm-9.26-2h6.52L710 463.24z"/><path d="M840 520v-30H710v-30" stroke="#000" stroke-width="2" fill="none"/><path d="M714.64 474.27h-9.28L710 460z"/><path d="M716 475.27h-12l4.95-15.27h2.1zm-9.26-2h6.52L710 463.24z"/><path d="M1100 520v-30H710v-30" stroke="#000" stroke-width="2" fill="none"/><path d="M714.64 474.27h-9.28L710 460z"/><path d="M716 475.27h-12l4.95-15.27h2.1zm-9.26-2h6.52L710 463.24z"/><path d="M840 680v-39" stroke="#000" stroke-width="2" fill="none"/><path d="M844.64 655.27h-9.28L840 641z"/><path d="M846 656.27h-12l5.27-16.27h1.46zm-9.26-2h6.52L840 644.24z"/><path d="M1100 670.2V640" stroke="#000" stroke-width="2" fill="none"/><path d="M1104.64 654.27h-9.28L1100 640z"/><path d="M1106 655.27h-12l4.95-15.27h2.1zm-9.26-2h6.52l-3.26-10.03z"/><path d="M260 700v-79" stroke="#000" stroke-width="2" fill="none"/><path d="M264.64 635.27h-9.28L260 621z"/><path d="M266 636.27h-12l5.27-16.27h1.46zm-9.26-2h6.52L260 624.24z"/><defs><path d="M33 0v-248h34V0H33" id="bp"/><path d="M117-194c89-4 53 116 60 194h-32v-121c0-31-8-49-39-48C34-167 62-67 57 0H25l-1-190h30c1 10-1 24 2 32 11-22 29-35 61-36" id="bq"/><path d="M141-36C126-15 110 5 73 4 37 3 15-17 15-53c-1-64 63-63 125-63 3-35-9-54-41-54-24 1-41 7-42 31l-33-3c5-37 33-52 76-52 45 0 72 20 72 64v82c-1 20 7 32 28 27v20c-31 9-61-2-59-35zM48-53c0 20 12 33 32 33 41-3 63-29 60-74-43 2-92-5-92 41" id="br"/><path d="M85-194c31 0 48 13 60 33l-1-100h32l1 261h-30c-2-10 0-23-3-31C134-8 116 4 85 4 32 4 16-35 15-94c0-66 23-100 70-100zm9 24c-40 0-46 34-46 75 0 40 6 74 45 74 42 0 51-32 51-76 0-42-9-74-50-73" id="bs"/><path d="M100-194c63 0 86 42 84 106H49c0 40 14 67 53 68 26 1 43-12 49-29l28 8c-11 28-37 45-77 45C44 4 14-33 15-96c1-61 26-98 85-98zm52 81c6-60-76-77-97-28-3 7-6 17-6 28h103" id="bt"/><path d="M96-169c-40 0-48 33-48 73s9 75 48 75c24 0 41-14 43-38l32 2c-6 37-31 61-74 61-59 0-76-41-82-99-10-93 101-131 147-64 4 7 5 14 7 22l-32 3c-4-21-16-35-41-35" id="bu"/><path d="M84 4C-5 8 30-112 23-190h32v120c0 31 7 50 39 49 72-2 45-101 50-169h31l1 190h-30c-1-10 1-25-2-33-11 22-28 36-60 37" id="bv"/><path d="M100-194c62-1 85 37 85 99 1 63-27 99-86 99S16-35 15-95c0-66 28-99 85-99zM99-20c44 1 53-31 53-75 0-43-8-75-51-75s-53 32-53 75 10 74 51 75" id="bw"/><path d="M135-143c-3-34-86-38-87 0 15 53 115 12 119 90S17 21 10-45l28-5c4 36 97 45 98 0-10-56-113-15-118-90-4-57 82-63 122-42 12 7 21 19 24 35" id="bx"/><g id="a"><use transform="matrix(0.05,0,0,0.05,0,0)" xlink:href="#bp"/><use transform="matrix(0.05,0,0,0.05,5,0)" xlink:href="#bq"/><use transform="matrix(0.05,0,0,0.05,15,0)" xlink:href="#br"/><use transform="matrix(0.05,0,0,0.05,25,0)" xlink:href="#bs"/><use transform="matrix(0.05,0,0,0.05,35,0)" xlink:href="#bt"/><use transform="matrix(0.05,0,0,0.05,45,0)" xlink:href="#bu"/><use transform="matrix(0.05,0,0,0.05,54,0)" xlink:href="#bv"/><use transform="matrix(0.05,0,0,0.05,64,0)" xlink:href="#br"/><use transform="matrix(0.05,0,0,0.05,74,0)" xlink:href="#bs"/><use transform="matrix(0.05,0,0,0.05,84,0)" xlink:href="#bw"/><use transform="matrix(0.05,0,0,0.05,94,0)" xlink:href="#bx"/></g><path d="M115-194c55 1 70 41 70 98S169 2 115 4C84 4 66-9 55-30l1 105H24l-1-265h31l2 30c10-21 28-34 59-34zm-8 174c40 0 45-34 45-75s-6-73-45-74c-42 0-51 32-51 76 0 43 10 73 51 73" id="by"/><path d="M114-163C36-179 61-72 57 0H25l-1-190h30c1 12-1 29 2 39 6-27 23-49 58-41v29" id="bz"/><g id="b"><use transform="matrix(0.05,0,0,0.05,0,0)" xlink:href="#by"/><use transform="matrix(0.05,0,0,0.05,10,0)" xlink:href="#bz"/><use transform="matrix(0.05,0,0,0.05,15.949999999999998,0)" xlink:href="#bw"/><use transform="matrix(0.05,0,0,0.05,25.950000000000003,0)" xlink:href="#bu"/><use transform="matrix(0.05,0,0,0.05,34.95,0)" xlink:href="#bt"/><use transform="matrix(0.05,0,0,0.05,44.95,0)" xlink:href="#bx"/><use transform="matrix(0.05,0,0,0.05,53.95,0)" xlink:href="#bw"/><use transform="matrix(0.05,0,0,0.05,63.95,0)" xlink:href="#bx"/></g><path d="M101-234c-31-9-42 10-38 44h38v23H63V0H32v-167H5v-23h27c-7-52 17-82 69-68v24" id="bA"/><path d="M24-231v-30h32v30H24zM24 0v-190h32V0H24" id="bB"/><g id="c"><use transform="matrix(0.05,0,0,0.05,0,0)" xlink:href="#bA"/><use transform="matrix(0.05,0,0,0.05,5,0)" xlink:href="#bB"/><use transform="matrix(0.05,0,0,0.05,8.95,0)" xlink:href="#bq"/><use transform="matrix(0.05,0,0,0.05,18.95,0)" xlink:href="#br"/><use transform="matrix(0.05,0,0,0.05,28.950000000000003,0)" xlink:href="#bq"/><use transform="matrix(0.05,0,0,0.05,38.95,0)" xlink:href="#bu"/><use transform="matrix(0.05,0,0,0.05,47.95,0)" xlink:href="#bB"/><use transform="matrix(0.05,0,0,0.05,51.900000000000006,0)" xlink:href="#bt"/><use transform="matrix(0.05,0,0,0.05,61.900000000000006,0)" xlink:href="#bz"/><use transform="matrix(0.05,0,0,0.05,67.85000000000001,0)" xlink:href="#bw"/><use transform="matrix(0.05,0,0,0.05,77.85000000000001,0)" xlink:href="#bx"/></g><path d="M59-47c-2 24 18 29 38 22v24C64 9 27 4 27-40v-127H5v-23h24l9-43h21v43h35v23H59v120" id="bC"/><g id="d"><use transform="matrix(0.05,0,0,0.05,0,0)" xlink:href="#bs"/><use transform="matrix(0.05,0,0,0.05,10,0)" xlink:href="#bt"/><use transform="matrix(0.05,0,0,0.05,20,0)" xlink:href="#bq"/><use transform="matrix(0.05,0,0,0.05,30,0)" xlink:href="#bC"/><use transform="matrix(0.05,0,0,0.05,35,0)" xlink:href="#bz"/><use transform="matrix(0.05,0,0,0.05,40.95,0)" xlink:href="#bw"/></g><path d="M24 0v-261h32V0H24" id="bD"/><g id="e"><use transform="matrix(0.05,0,0,0.05,0,0)" xlink:href="#bs"/><use transform="matrix(0.05,0,0,0.05,10,0)" xlink:href="#bt"/><use transform="matrix(0.05,0,0,0.05,20,0)" xlink:href="#bD"/></g><path d="M210-169c-67 3-38 105-44 169h-31v-121c0-29-5-50-35-48C34-165 62-65 56 0H25l-1-190h30c1 10-1 24 2 32 10-44 99-50 107 0 11-21 27-35 58-36 85-2 47 119 55 194h-31v-121c0-29-5-49-35-48" id="bE"/><g id="f"><use transform="matrix(0.05,0,0,0.05,0,0)" xlink:href="#bE"/><use transform="matrix(0.05,0,0,0.05,14.950000000000001,0)" xlink:href="#bw"/><use transform="matrix(0.05,0,0,0.05,24.950000000000003,0)" xlink:href="#bs"/><use transform="matrix(0.05,0,0,0.05,34.95,0)" xlink:href="#bt"/><use transform="matrix(0.05,0,0,0.05,44.95,0)" xlink:href="#bD"/><use transform="matrix(0.05,0,0,0.05,48.900000000000006,0)" xlink:href="#bw"/></g><g id="g"><use transform="matrix(0.05,0,0,0.05,0,0)" xlink:href="#bs"/><use transform="matrix(0.05,0,0,0.05,10,0)" xlink:href="#bt"/></g><path d="M177-190C167-65 218 103 67 71c-23-6-38-20-44-43l32-5c15 47 100 32 89-28v-30C133-14 115 1 83 1 29 1 15-40 15-95c0-56 16-97 71-98 29-1 48 16 59 35 1-10 0-23 2-32h30zM94-22c36 0 50-32 50-73 0-42-14-75-50-75-39 0-46 34-46 75s6 73 46 73" id="bF"/><path d="M100-194c62-1 85 37 85 99 1 63-27 99-86 99S16-35 15-95c0-66 28-99 85-99zM99-20c44 1 53-31 53-75 0-43-8-75-51-75s-53 32-53 75 10 74 51 75zM76-211c8-23 27-35 38-54h36v5l-58 49H76" id="bG"/><g id="h"><use transform="matrix(0.05,0,0,0.05,0,0)" xlink:href="#bF"/><use transform="matrix(0.05,0,0,0.05,10,0)" xlink:href="#bt"/><use transform="matrix(0.05,0,0,0.05,20,0)" xlink:href="#bx"/><use transform="matrix(0.05,0,0,0.05,29,0)" xlink:href="#bC"/><use transform="matrix(0.05,0,0,0.05,34,0)" xlink:href="#bB"/><use transform="matrix(0.05,0,0,0.05,37.95,0)" xlink:href="#bG"/><use transform="matrix(0.05,0,0,0.05,47.95,0)" xlink:href="#bq"/></g><path d="M143 4C61 4 22-44 18-125c-5-107 100-154 193-111 17 8 29 25 37 43l-32 9c-13-25-37-40-76-40-61 0-88 39-88 99 0 61 29 100 91 101 35 0 62-11 79-27v-45h-74v-28h105v86C228-13 192 4 143 4" id="bH"/><path d="M205 0l-28-72H64L36 0H1l101-248h38L239 0h-34zm-38-99l-47-123c-12 45-31 82-46 123h93" id="bI"/><path d="M30-248c118-7 216 8 213 122C240-48 200 0 122 0H30v-248zM63-27c89 8 146-16 146-99s-60-101-146-95v194" id="bJ"/><g id="i"><use transform="matrix(0.05,0,0,0.05,0,0)" xlink:href="#bH"/><use transform="matrix(0.05,0,0,0.05,14,0)" xlink:href="#bI"/><use transform="matrix(0.05,0,0,0.05,26,0)" xlink:href="#bJ"/></g><path d="M115-194c53 0 69 39 70 98 0 66-23 100-70 100C84 3 66-7 56-30L54 0H23l1-261h32v101c10-23 28-34 59-34zm-8 174c40 0 45-34 45-75 0-40-5-75-45-74-42 0-51 32-51 76 0 43 10 73 51 73" id="bK"/><g id="j"><use transform="matrix(0.05,0,0,0.05,0,0)" xlink:href="#bp"/><use transform="matrix(0.05,0,0,0.05,5,0)" xlink:href="#bE"/><use transform="matrix(0.05,0,0,0.05,19.950000000000003,0)" xlink:href="#bK"/><use transform="matrix(0.05,0,0,0.05,29.950000000000003,0)" xlink:href="#br"/><use transform="matrix(0.05,0,0,0.05,39.95,0)" xlink:href="#bK"/><use transform="matrix(0.05,0,0,0.05,49.95,0)" xlink:href="#bv"/><use transform="matrix(0.05,0,0,0.05,59.95,0)" xlink:href="#bz"/><use transform="matrix(0.05,0,0,0.05,65.9,0)" xlink:href="#br"/></g><path d="M30-248c87 1 191-15 191 75 0 78-77 80-158 76V0H30v-248zm33 125c57 0 124 11 124-50 0-59-68-47-124-48v98" id="bL"/><g id="k"><use transform="matrix(0.05,0,0,0.05,0,0)" xlink:href="#bL"/><use transform="matrix(0.05,0,0,0.05,12,0)" xlink:href="#bz"/><use transform="matrix(0.05,0,0,0.05,17.95,0)" xlink:href="#bw"/><use transform="matrix(0.05,0,0,0.05,27.950000000000003,0)" xlink:href="#bs"/><use transform="matrix(0.05,0,0,0.05,37.95,0)" xlink:href="#bv"/><use transform="matrix(0.05,0,0,0.05,47.95,0)" xlink:href="#bu"/><use transform="matrix(0.05,0,0,0.05,56.95,0)" xlink:href="#bC"/><use transform="matrix(0.05,0,0,0.05,61.95,0)" xlink:href="#bw"/><use transform="matrix(0.05,0,0,0.05,71.95,0)" xlink:href="#bx"/></g><path d="M179-190L93 31C79 59 56 82 12 73V49c39 6 53-20 64-50L1-190h34L92-34l54-156h33" id="bM"/><use transform="matrix(0.05,0,0,0.05,0,0)" xlink:href="#bM" id="l"/><path d="M108 0H70L1-190h34L89-25l56-165h34" id="bN"/><g id="m"><use transform="matrix(0.05,0,0,0.05,0,0)" xlink:href="#bx"/><use transform="matrix(0.05,0,0,0.05,9,0)" xlink:href="#bt"/><use transform="matrix(0.05,0,0,0.05,19,0)" xlink:href="#bz"/><use transform="matrix(0.05,0,0,0.05,24.95,0)" xlink:href="#bN"/><use transform="matrix(0.05,0,0,0.05,33.95,0)" xlink:href="#bB"/><use transform="matrix(0.05,0,0,0.05,37.900000000000006,0)" xlink:href="#bu"/><use transform="matrix(0.05,0,0,0.05,46.900000000000006,0)" xlink:href="#bB"/><use transform="matrix(0.05,0,0,0.05,50.85000000000001,0)" xlink:href="#bw"/><use transform="matrix(0.05,0,0,0.05,60.85,0)" xlink:href="#bx"/></g><g id="n"><use transform="matrix(0.05,0,0,0.05,0,0)" xlink:href="#bF"/><use transform="matrix(0.05,0,0,0.05,10,0)" xlink:href="#bt"/><use transform="matrix(0.05,0,0,0.05,20,0)" xlink:href="#bq"/><use transform="matrix(0.05,0,0,0.05,30,0)" xlink:href="#bt"/><use transform="matrix(0.05,0,0,0.05,40,0)" xlink:href="#bz"/><use transform="matrix(0.05,0,0,0.05,45.95,0)" xlink:href="#br"/><use transform="matrix(0.05,0,0,0.05,55.95,0)" xlink:href="#bs"/><use transform="matrix(0.05,0,0,0.05,65.95,0)" xlink:href="#bw"/><use transform="matrix(0.05,0,0,0.05,75.95,0)" xlink:href="#bx"/></g><g id="o"><use transform="matrix(0.05,0,0,0.05,0,0)" xlink:href="#bt"/><use transform="matrix(0.05,0,0,0.05,10,0)" xlink:href="#bq"/></g><g id="p"><use transform="matrix(0.05,0,0,0.05,0,0)" xlink:href="#bD"/><use transform="matrix(0.05,0,0,0.05,3.95,0)" xlink:href="#br"/><use transform="matrix(0.05,0,0,0.05,13.949999999999998,0)" xlink:href="#bx"/></g><path d="M141-36C126-15 110 5 73 4 37 3 15-17 15-53c-1-64 63-63 125-63 3-35-9-54-41-54-24 1-41 7-42 31l-33-3c5-37 33-52 76-52 45 0 72 20 72 64v82c-1 20 7 32 28 27v20c-31 9-61-2-59-35zM48-53c0 20 12 33 32 33 41-3 63-29 60-74-43 2-92-5-92 41zm25-158c8-23 27-35 38-54h36v5l-58 49H73" id="bO"/><g id="q"><use transform="matrix(0.05,0,0,0.05,0,0)" xlink:href="#bO"/><use transform="matrix(0.05,0,0,0.05,10,0)" xlink:href="#bz"/><use transform="matrix(0.05,0,0,0.05,15.949999999999998,0)" xlink:href="#bt"/><use transform="matrix(0.05,0,0,0.05,25.950000000000003,0)" xlink:href="#br"/><use transform="matrix(0.05,0,0,0.05,35.95,0)" xlink:href="#bx"/></g><g id="r"><use transform="matrix(0.05,0,0,0.05,0,0)" xlink:href="#bx"/><use transform="matrix(0.05,0,0,0.05,9,0)" xlink:href="#bw"/><use transform="matrix(0.05,0,0,0.05,19,0)" xlink:href="#bq"/></g><g id="s"><use transform="matrix(0.05,0,0,0.05,0,0)" xlink:href="#bB"/><use transform="matrix(0.05,0,0,0.05,3.95,0)" xlink:href="#bq"/><use transform="matrix(0.05,0,0,0.05,13.949999999999998,0)" xlink:href="#bu"/><use transform="matrix(0.05,0,0,0.05,22.95,0)" xlink:href="#bw"/><use transform="matrix(0.05,0,0,0.05,32.95,0)" xlink:href="#bE"/><use transform="matrix(0.05,0,0,0.05,47.900000000000006,0)" xlink:href="#by"/><use transform="matrix(0.05,0,0,0.05,57.900000000000006,0)" xlink:href="#bD"/><use transform="matrix(0.05,0,0,0.05,61.85,0)" xlink:href="#bt"/><use transform="matrix(0.05,0,0,0.05,71.85000000000001,0)" xlink:href="#bC"/><use transform="matrix(0.05,0,0,0.05,76.85000000000001,0)" xlink:href="#bw"/><use transform="matrix(0.05,0,0,0.05,86.85000000000001,0)" xlink:href="#bx"/></g><use transform="matrix(0.05,0,0,0.05,0,0)" xlink:href="#bw" id="t"/><g id="u"><use transform="matrix(0.05,0,0,0.05,0,0)" xlink:href="#bB"/><use transform="matrix(0.05,0,0,0.05,3.95,0)" xlink:href="#bq"/><use transform="matrix(0.05,0,0,0.05,13.949999999999998,0)" xlink:href="#bu"/><use transform="matrix(0.05,0,0,0.05,22.95,0)" xlink:href="#bw"/><use transform="matrix(0.05,0,0,0.05,32.95,0)" xlink:href="#bz"/><use transform="matrix(0.05,0,0,0.05,38.900000000000006,0)" xlink:href="#bz"/><use transform="matrix(0.05,0,0,0.05,44.85000000000001,0)" xlink:href="#bt"/><use transform="matrix(0.05,0,0,0.05,54.85,0)" xlink:href="#bu"/><use transform="matrix(0.05,0,0,0.05,63.85,0)" xlink:href="#bC"/><use transform="matrix(0.05,0,0,0.05,68.85000000000001,0)" xlink:href="#bw"/><use transform="matrix(0.05,0,0,0.05,78.85000000000001,0)" xlink:href="#bx"/></g><path d="M30 0v-248h187v28H63v79h144v27H63v87h162V0H30" id="bP"/><path d="M24-231v-30h32v30H24zM-9 49c24 4 33-6 33-30v-209h32V24c2 40-23 58-65 49V49" id="bQ"/><g id="v"><use transform="matrix(0.05,0,0,0.05,0,0)" xlink:href="#bP"/><use transform="matrix(0.05,0,0,0.05,12,0)" xlink:href="#bQ"/><use transform="matrix(0.05,0,0,0.05,15.949999999999998,0)" xlink:href="#bt"/><use transform="matrix(0.05,0,0,0.05,25.950000000000003,0)" xlink:href="#bu"/><use transform="matrix(0.05,0,0,0.05,34.95,0)" xlink:href="#bv"/><use transform="matrix(0.05,0,0,0.05,44.95,0)" xlink:href="#bu"/><use transform="matrix(0.05,0,0,0.05,53.95,0)" xlink:href="#bB"/><use transform="matrix(0.05,0,0,0.05,57.900000000000006,0)" xlink:href="#bG"/><use transform="matrix(0.05,0,0,0.05,67.9,0)" xlink:href="#bq"/></g><g id="w"><use transform="matrix(0.05,0,0,0.05,0,0)" xlink:href="#by"/><use transform="matrix(0.05,0,0,0.05,10,0)" xlink:href="#bz"/><use transform="matrix(0.05,0,0,0.05,15.949999999999998,0)" xlink:href="#bt"/><use transform="matrix(0.05,0,0,0.05,25.950000000000003,0)" xlink:href="#bx"/><use transform="matrix(0.05,0,0,0.05,34.95,0)" xlink:href="#bv"/><use transform="matrix(0.05,0,0,0.05,44.95,0)" xlink:href="#by"/><use transform="matrix(0.05,0,0,0.05,54.95,0)" xlink:href="#bv"/><use transform="matrix(0.05,0,0,0.05,64.95,0)" xlink:href="#bt"/><use transform="matrix(0.05,0,0,0.05,74.95,0)" xlink:href="#bx"/><use transform="matrix(0.05,0,0,0.05,83.95,0)" xlink:href="#bC"/><use transform="matrix(0.05,0,0,0.05,88.95,0)" xlink:href="#br"/><use transform="matrix(0.05,0,0,0.05,98.95,0)" xlink:href="#bz"/><use transform="matrix(0.05,0,0,0.05,104.9,0)" xlink:href="#bB"/><use transform="matrix(0.05,0,0,0.05,108.85000000000001,0)" xlink:href="#br"/></g><g id="x"><use transform="matrix(0.05,0,0,0.05,0,0)" xlink:href="#bq"/><use transform="matrix(0.05,0,0,0.05,10,0)" xlink:href="#bw"/></g><g id="y"><use transform="matrix(0.05,0,0,0.05,0,0)" xlink:href="#bu"/><use transform="matrix(0.05,0,0,0.05,9,0)" xlink:href="#bv"/><use transform="matrix(0.05,0,0,0.05,19,0)" xlink:href="#bE"/><use transform="matrix(0.05,0,0,0.05,33.95,0)" xlink:href="#by"/><use transform="matrix(0.05,0,0,0.05,43.95,0)" xlink:href="#bD"/><use transform="matrix(0.05,0,0,0.05,47.900000000000006,0)" xlink:href="#bt"/></g><g id="z"><use transform="matrix(0.05,0,0,0.05,0,0)" xlink:href="#bu"/><use transform="matrix(0.05,0,0,0.05,9,0)" xlink:href="#bw"/><use transform="matrix(0.05,0,0,0.05,19,0)" xlink:href="#bq"/></g><g id="A"><use transform="matrix(0.05,0,0,0.05,0,0)" xlink:href="#bD"/><use transform="matrix(0.05,0,0,0.05,3.95,0)" xlink:href="#br"/></g><g id="B"><use transform="matrix(0.05,0,0,0.05,0,0)" xlink:href="#by"/><use transform="matrix(0.05,0,0,0.05,10,0)" xlink:href="#bD"/><use transform="matrix(0.05,0,0,0.05,13.949999999999998,0)" xlink:href="#br"/><use transform="matrix(0.05,0,0,0.05,23.95,0)" xlink:href="#bq"/><use transform="matrix(0.05,0,0,0.05,33.95,0)" xlink:href="#bB"/><use transform="matrix(0.05,0,0,0.05,37.900000000000006,0)" xlink:href="#bA"/><use transform="matrix(0.05,0,0,0.05,42.900000000000006,0)" xlink:href="#bB"/><use transform="matrix(0.05,0,0,0.05,46.85000000000001,0)" xlink:href="#bu"/><use transform="matrix(0.05,0,0,0.05,55.85,0)" xlink:href="#br"/><use transform="matrix(0.05,0,0,0.05,65.85000000000001,0)" xlink:href="#bu"/><use transform="matrix(0.05,0,0,0.05,74.85000000000001,0)" xlink:href="#bB"/><use transform="matrix(0.05,0,0,0.05,78.80000000000001,0)" xlink:href="#bG"/><use transform="matrix(0.05,0,0,0.05,88.80000000000001,0)" xlink:href="#bq"/></g><g id="C"><use transform="matrix(0.05,0,0,0.05,0,0)" xlink:href="#bt"/><use transform="matrix(0.05,0,0,0.05,10,0)" xlink:href="#bx"/><use transform="matrix(0.05,0,0,0.05,19,0)" xlink:href="#bC"/><use transform="matrix(0.05,0,0,0.05,24,0)" xlink:href="#br"/><use transform="matrix(0.05,0,0,0.05,34,0)" xlink:href="#bK"/><use transform="matrix(0.05,0,0,0.05,44,0)" xlink:href="#bD"/><use transform="matrix(0.05,0,0,0.05,47.95,0)" xlink:href="#bt"/><use transform="matrix(0.05,0,0,0.05,57.95,0)" xlink:href="#bu"/><use transform="matrix(0.05,0,0,0.05,66.95,0)" xlink:href="#bB"/><use transform="matrix(0.05,0,0,0.05,70.9,0)" xlink:href="#bs"/><use transform="matrix(0.05,0,0,0.05,80.9,0)" xlink:href="#br"/></g><path d="M185-189c-5-48-123-54-124 2 14 75 158 14 163 119 3 78-121 87-175 55-17-10-28-26-33-46l33-7c5 56 141 63 141-1 0-78-155-14-162-118-5-82 145-84 179-34 5 7 8 16 11 25" id="bR"/><g id="D"><use transform="matrix(0.05,0,0,0.05,0,0)" xlink:href="#bR"/><use transform="matrix(0.05,0,0,0.05,12,0)" xlink:href="#bB"/><use transform="matrix(0.05,0,0,0.05,15.949999999999998,0)" xlink:href="#bx"/><use transform="matrix(0.05,0,0,0.05,24.95,0)" xlink:href="#bC"/><use transform="matrix(0.05,0,0,0.05,29.950000000000003,0)" xlink:href="#bt"/><use transform="matrix(0.05,0,0,0.05,39.95,0)" xlink:href="#bE"/><use transform="matrix(0.05,0,0,0.05,54.900000000000006,0)" xlink:href="#br"/></g><g id="E"><use transform="matrix(0.05,0,0,0.05,0,0)" xlink:href="#bB"/><use transform="matrix(0.05,0,0,0.05,3.95,0)" xlink:href="#bq"/><use transform="matrix(0.05,0,0,0.05,13.949999999999998,0)" xlink:href="#bA"/><use transform="matrix(0.05,0,0,0.05,18.95,0)" xlink:href="#bw"/><use transform="matrix(0.05,0,0,0.05,28.950000000000003,0)" xlink:href="#bz"/><use transform="matrix(0.05,0,0,0.05,34.9,0)" xlink:href="#bE"/><use transform="matrix(0.05,0,0,0.05,49.85,0)" xlink:href="#br"/><use transform="matrix(0.05,0,0,0.05,59.85,0)" xlink:href="#bu"/><use transform="matrix(0.05,0,0,0.05,68.85,0)" xlink:href="#bB"/><use transform="matrix(0.05,0,0,0.05,72.8,0)" xlink:href="#bG"/><use transform="matrix(0.05,0,0,0.05,82.8,0)" xlink:href="#bq"/></g><g id="F"><use transform="matrix(0.05,0,0,0.05,0,0)" xlink:href="#bA"/><use transform="matrix(0.05,0,0,0.05,5,0)" xlink:href="#bB"/><use transform="matrix(0.05,0,0,0.05,8.95,0)" xlink:href="#bq"/><use transform="matrix(0.05,0,0,0.05,18.95,0)" xlink:href="#br"/><use transform="matrix(0.05,0,0,0.05,28.950000000000003,0)" xlink:href="#bq"/><use transform="matrix(0.05,0,0,0.05,38.95,0)" xlink:href="#bu"/><use transform="matrix(0.05,0,0,0.05,47.95,0)" xlink:href="#bB"/><use transform="matrix(0.05,0,0,0.05,51.900000000000006,0)" xlink:href="#bt"/><use transform="matrix(0.05,0,0,0.05,61.900000000000006,0)" xlink:href="#bz"/><use transform="matrix(0.05,0,0,0.05,67.85000000000001,0)" xlink:href="#br"/></g><g id="G"><use transform="matrix(0.05,0,0,0.05,0,0)" xlink:href="#bq"/><use transform="matrix(0.05,0,0,0.05,10,0)" xlink:href="#bw"/></g><path d="M68-38c1 34 0 65-14 84H32c9-13 17-26 17-46H33v-38h35" id="bS"/><g id="H"><use transform="matrix(0.05,0,0,0.05,0,0)" xlink:href="#bu"/><use transform="matrix(0.05,0,0,0.05,9,0)" xlink:href="#bw"/><use transform="matrix(0.05,0,0,0.05,19,0)" xlink:href="#bq"/><use transform="matrix(0.05,0,0,0.05,29,0)" xlink:href="#bA"/><use transform="matrix(0.05,0,0,0.05,34,0)" xlink:href="#bB"/><use transform="matrix(0.05,0,0,0.05,37.95,0)" xlink:href="#br"/><use transform="matrix(0.05,0,0,0.05,47.95,0)" xlink:href="#bK"/><use transform="matrix(0.05,0,0,0.05,57.95,0)" xlink:href="#bD"/><use transform="matrix(0.05,0,0,0.05,61.900000000000006,0)" xlink:href="#bt"/><use transform="matrix(0.05,0,0,0.05,71.9,0)" xlink:href="#bS"/></g><g id="I"><use transform="matrix(0.05,0,0,0.05,0,0)" xlink:href="#by"/><use transform="matrix(0.05,0,0,0.05,10,0)" xlink:href="#bz"/><use transform="matrix(0.05,0,0,0.05,15.949999999999998,0)" xlink:href="#bt"/><use transform="matrix(0.05,0,0,0.05,25.950000000000003,0)" xlink:href="#bx"/><use transform="matrix(0.05,0,0,0.05,34.95,0)" xlink:href="#bt"/><use transform="matrix(0.05,0,0,0.05,44.95,0)" xlink:href="#bq"/><use transform="matrix(0.05,0,0,0.05,54.95,0)" xlink:href="#bC"/><use transform="matrix(0.05,0,0,0.05,59.95,0)" xlink:href="#br"/></g><g id="J"><use transform="matrix(0.05,0,0,0.05,0,0)" xlink:href="#bB"/><use transform="matrix(0.05,0,0,0.05,3.95,0)" xlink:href="#bq"/><use transform="matrix(0.05,0,0,0.05,13.949999999999998,0)" xlink:href="#bu"/><use transform="matrix(0.05,0,0,0.05,22.95,0)" xlink:href="#bB"/><use transform="matrix(0.05,0,0,0.05,26.899999999999995,0)" xlink:href="#bs"/><use transform="matrix(0.05,0,0,0.05,36.9,0)" xlink:href="#bt"/><use transform="matrix(0.05,0,0,0.05,46.9,0)" xlink:href="#bq"/><use transform="matrix(0.05,0,0,0.05,56.900000000000006,0)" xlink:href="#bC"/><use transform="matrix(0.05,0,0,0.05,61.900000000000006,0)" xlink:href="#bt"/><use transform="matrix(0.05,0,0,0.05,71.9,0)" xlink:href="#bx"/></g><g id="K"><use transform="matrix(0.05,0,0,0.05,0,0)" xlink:href="#bA"/><use transform="matrix(0.05,0,0,0.05,5,0)" xlink:href="#bz"/><use transform="matrix(0.05,0,0,0.05,10.95,0)" xlink:href="#bt"/><use transform="matrix(0.05,0,0,0.05,20.95,0)" xlink:href="#bu"/><use transform="matrix(0.05,0,0,0.05,29.950000000000003,0)" xlink:href="#bv"/><use transform="matrix(0.05,0,0,0.05,39.95,0)" xlink:href="#bt"/><use transform="matrix(0.05,0,0,0.05,49.95,0)" xlink:href="#bq"/><use transform="matrix(0.05,0,0,0.05,59.95,0)" xlink:href="#bC"/><use transform="matrix(0.05,0,0,0.05,64.95,0)" xlink:href="#bt"/><use transform="matrix(0.05,0,0,0.05,74.95,0)" xlink:href="#bx"/></g><g id="L"><use transform="matrix(0.05,0,0,0.05,0,0)" xlink:href="#br"/><use transform="matrix(0.05,0,0,0.05,10,0)" xlink:href="#bA"/><use transform="matrix(0.05,0,0,0.05,15,0)" xlink:href="#bt"/><use transform="matrix(0.05,0,0,0.05,25,0)" xlink:href="#bu"/><use transform="matrix(0.05,0,0,0.05,34,0)" xlink:href="#bC"/><use transform="matrix(0.05,0,0,0.05,39,0)" xlink:href="#br"/><use transform="matrix(0.05,0,0,0.05,49,0)" xlink:href="#bq"/><use transform="matrix(0.05,0,0,0.05,59,0)" xlink:href="#bs"/><use transform="matrix(0.05,0,0,0.05,69,0)" xlink:href="#bw"/></g><g id="M"><use transform="matrix(0.05,0,0,0.05,0,0)" xlink:href="#bw"/><use transform="matrix(0.05,0,0,0.05,10,0)" xlink:href="#by"/><use transform="matrix(0.05,0,0,0.05,20,0)" xlink:href="#bt"/><use transform="matrix(0.05,0,0,0.05,30,0)" xlink:href="#bz"/><use transform="matrix(0.05,0,0,0.05,35.95,0)" xlink:href="#br"/><use transform="matrix(0.05,0,0,0.05,45.95,0)" xlink:href="#bu"/><use transform="matrix(0.05,0,0,0.05,54.95,0)" xlink:href="#bB"/><use transform="matrix(0.05,0,0,0.05,58.900000000000006,0)" xlink:href="#bG"/><use transform="matrix(0.05,0,0,0.05,68.9,0)" xlink:href="#bq"/></g><use transform="matrix(0.05,0,0,0.05,0,0)" xlink:href="#bM" id="N"/><g id="O"><use transform="matrix(0.05,0,0,0.05,0,0)" xlink:href="#bx"/><use transform="matrix(0.05,0,0,0.05,9,0)" xlink:href="#bt"/><use transform="matrix(0.05,0,0,0.05,19,0)" xlink:href="#bz"/><use transform="matrix(0.05,0,0,0.05,24.95,0)" xlink:href="#bN"/><use transform="matrix(0.05,0,0,0.05,33.95,0)" xlink:href="#bB"/><use transform="matrix(0.05,0,0,0.05,37.900000000000006,0)" xlink:href="#bu"/><use transform="matrix(0.05,0,0,0.05,46.900000000000006,0)" xlink:href="#bB"/><use transform="matrix(0.05,0,0,0.05,50.85000000000001,0)" xlink:href="#bw"/></g><use transform="matrix(0.05,0,0,0.05,0,0)" xlink:href="#br" id="P"/><g id="Q"><use transform="matrix(0.05,0,0,0.05,0,0)" xlink:href="#bD"/><use transform="matrix(0.05,0,0,0.05,3.95,0)" xlink:href="#bw"/><use transform="matrix(0.05,0,0,0.05,13.949999999999998,0)" xlink:href="#bx"/></g><g id="R"><use transform="matrix(0.05,0,0,0.05,0,0)" xlink:href="#bv"/><use transform="matrix(0.05,0,0,0.05,10,0)" xlink:href="#bx"/><use transform="matrix(0.05,0,0,0.05,19,0)" xlink:href="#bv"/><use transform="matrix(0.05,0,0,0.05,29,0)" xlink:href="#br"/><use transform="matrix(0.05,0,0,0.05,39,0)" xlink:href="#bz"/><use transform="matrix(0.05,0,0,0.05,44.95,0)" xlink:href="#bB"/><use transform="matrix(0.05,0,0,0.05,48.900000000000006,0)" xlink:href="#bw"/><use transform="matrix(0.05,0,0,0.05,58.900000000000006,0)" xlink:href="#bx"/></g><g id="S"><use transform="matrix(0.05,0,0,0.05,0,0)" xlink:href="#bp"/><use transform="matrix(0.05,0,0,0.05,5,0)" xlink:href="#bq"/><use transform="matrix(0.05,0,0,0.05,15,0)" xlink:href="#bA"/><use transform="matrix(0.05,0,0,0.05,20,0)" xlink:href="#bw"/><use transform="matrix(0.05,0,0,0.05,30,0)" xlink:href="#bz"/><use transform="matrix(0.05,0,0,0.05,35.95,0)" xlink:href="#bE"/><use transform="matrix(0.05,0,0,0.05,50.900000000000006,0)" xlink:href="#br"/><use transform="matrix(0.05,0,0,0.05,60.900000000000006,0)" xlink:href="#bu"/><use transform="matrix(0.05,0,0,0.05,69.9,0)" xlink:href="#bB"/><use transform="matrix(0.05,0,0,0.05,73.85000000000001,0)" xlink:href="#bG"/><use transform="matrix(0.05,0,0,0.05,83.85000000000001,0)" xlink:href="#bq"/></g><g id="T"><use transform="matrix(0.05,0,0,0.05,0,0)" xlink:href="#bA"/><use transform="matrix(0.05,0,0,0.05,5,0)" xlink:href="#bB"/><use transform="matrix(0.05,0,0,0.05,8.95,0)" xlink:href="#bq"/><use transform="matrix(0.05,0,0,0.05,18.95,0)" xlink:href="#br"/><use transform="matrix(0.05,0,0,0.05,28.950000000000003,0)" xlink:href="#bq"/><use transform="matrix(0.05,0,0,0.05,38.95,0)" xlink:href="#bu"/><use transform="matrix(0.05,0,0,0.05,47.95,0)" xlink:href="#bB"/><use transform="matrix(0.05,0,0,0.05,51.900000000000006,0)" xlink:href="#bt"/><use transform="matrix(0.05,0,0,0.05,61.900000000000006,0)" xlink:href="#bz"/><use transform="matrix(0.05,0,0,0.05,67.85000000000001,0)" xlink:href="#br"/></g><g id="U"><use transform="matrix(0.05,0,0,0.05,0,0)" xlink:href="#bt"/><use transform="matrix(0.05,0,0,0.05,10,0)" xlink:href="#bx"/></g><g id="V"><use transform="matrix(0.05,0,0,0.05,0,0)" xlink:href="#bu"/><use transform="matrix(0.05,0,0,0.05,9,0)" xlink:href="#bw"/><use transform="matrix(0.05,0,0,0.05,19,0)" xlink:href="#bq"/><use transform="matrix(0.05,0,0,0.05,29,0)" xlink:href="#bA"/><use transform="matrix(0.05,0,0,0.05,34,0)" xlink:href="#bB"/><use transform="matrix(0.05,0,0,0.05,37.95,0)" xlink:href="#br"/><use transform="matrix(0.05,0,0,0.05,47.95,0)" xlink:href="#bK"/><use transform="matrix(0.05,0,0,0.05,57.95,0)" xlink:href="#bD"/><use transform="matrix(0.05,0,0,0.05,61.900000000000006,0)" xlink:href="#bt"/></g><g id="W"><use transform="matrix(0.05,0,0,0.05,0,0)" xlink:href="#bx"/><use transform="matrix(0.05,0,0,0.05,9,0)" xlink:href="#bt"/></g><g id="X"><use transform="matrix(0.05,0,0,0.05,0,0)" xlink:href="#bE"/><use transform="matrix(0.05,0,0,0.05,14.950000000000001,0)" xlink:href="#br"/><use transform="matrix(0.05,0,0,0.05,24.950000000000003,0)" xlink:href="#bq"/><use transform="matrix(0.05,0,0,0.05,34.95,0)" xlink:href="#bC"/><use transform="matrix(0.05,0,0,0.05,39.95,0)" xlink:href="#bB"/><use transform="matrix(0.05,0,0,0.05,43.900000000000006,0)" xlink:href="#bt"/><use transform="matrix(0.05,0,0,0.05,53.900000000000006,0)" xlink:href="#bq"/><use transform="matrix(0.05,0,0,0.05,63.900000000000006,0)" xlink:href="#bt"/></g><path d="M9 0v-24l116-142H16v-24h144v24L44-24h123V0H9" id="bT"/><g id="Y"><use transform="matrix(0.05,0,0,0.05,0,0)" xlink:href="#br"/><use transform="matrix(0.05,0,0,0.05,10,0)" xlink:href="#bu"/><use transform="matrix(0.05,0,0,0.05,19,0)" xlink:href="#bC"/><use transform="matrix(0.05,0,0,0.05,24,0)" xlink:href="#bv"/><use transform="matrix(0.05,0,0,0.05,34,0)" xlink:href="#br"/><use transform="matrix(0.05,0,0,0.05,44,0)" xlink:href="#bD"/><use transform="matrix(0.05,0,0,0.05,47.95,0)" xlink:href="#bB"/><use transform="matrix(0.05,0,0,0.05,51.900000000000006,0)" xlink:href="#bT"/><use transform="matrix(0.05,0,0,0.05,60.900000000000006,0)" xlink:href="#br"/><use transform="matrix(0.05,0,0,0.05,70.9,0)" xlink:href="#bs"/><use transform="matrix(0.05,0,0,0.05,80.9,0)" xlink:href="#br"/></g><g id="Z"><use transform="matrix(0.05,0,0,0.05,0,0)" xlink:href="#bJ"/><use transform="matrix(0.05,0,0,0.05,12.950000000000001,0)" xlink:href="#bw"/><use transform="matrix(0.05,0,0,0.05,22.950000000000003,0)" xlink:href="#bu"/><use transform="matrix(0.05,0,0,0.05,31.950000000000003,0)" xlink:href="#bv"/><use transform="matrix(0.05,0,0,0.05,41.95,0)" xlink:href="#bE"/><use transform="matrix(0.05,0,0,0.05,56.900000000000006,0)" xlink:href="#bt"/><use transform="matrix(0.05,0,0,0.05,66.9,0)" xlink:href="#bq"/><use transform="matrix(0.05,0,0,0.05,76.9,0)" xlink:href="#bC"/><use transform="matrix(0.05,0,0,0.05,81.9,0)" xlink:href="#br"/><use transform="matrix(0.05,0,0,0.05,91.9,0)" xlink:href="#bu"/><use transform="matrix(0.05,0,0,0.05,100.9,0)" xlink:href="#bB"/><use transform="matrix(0.05,0,0,0.05,104.85000000000001,0)" xlink:href="#bG"/><use transform="matrix(0.05,0,0,0.05,114.85000000000001,0)" xlink:href="#bq"/></g><g id="aa"><use transform="matrix(0.05,0,0,0.05,0,0)" xlink:href="#bs"/><use transform="matrix(0.05,0,0,0.05,10,0)" xlink:href="#bt"/></g><g id="ab"><use transform="matrix(0.05,0,0,0.05,0,0)" xlink:href="#bB"/><use transform="matrix(0.05,0,0,0.05,3.95,0)" xlink:href="#bq"/><use transform="matrix(0.05,0,0,0.05,13.949999999999998,0)" xlink:href="#br"/><use transform="matrix(0.05,0,0,0.05,23.95,0)" xlink:href="#bs"/><use transform="matrix(0.05,0,0,0.05,33.95,0)" xlink:href="#bt"/><use transform="matrix(0.05,0,0,0.05,43.95,0)" xlink:href="#bu"/><use transform="matrix(0.05,0,0,0.05,52.95,0)" xlink:href="#bv"/><use transform="matrix(0.05,0,0,0.05,62.95,0)" xlink:href="#br"/><use transform="matrix(0.05,0,0,0.05,72.95,0)" xlink:href="#bs"/><use transform="matrix(0.05,0,0,0.05,82.95,0)" xlink:href="#br"/></g><path d="M141 0L90-78 38 0H4l68-98-65-92h35l48 74 47-74h35l-64 92 68 98h-35" id="bU"/><g id="ac"><use transform="matrix(0.05,0,0,0.05,0,0)" xlink:href="#bB"/><use transform="matrix(0.05,0,0,0.05,3.95,0)" xlink:href="#bq"/><use transform="matrix(0.05,0,0,0.05,13.949999999999998,0)" xlink:href="#bt"/><use transform="matrix(0.05,0,0,0.05,23.95,0)" xlink:href="#bU"/><use transform="matrix(0.05,0,0,0.05,32.95,0)" xlink:href="#bB"/><use transform="matrix(0.05,0,0,0.05,36.900000000000006,0)" xlink:href="#bx"/><use transform="matrix(0.05,0,0,0.05,45.900000000000006,0)" xlink:href="#bC"/><use transform="matrix(0.05,0,0,0.05,50.900000000000006,0)" xlink:href="#bt"/><use transform="matrix(0.05,0,0,0.05,60.900000000000006,0)" xlink:href="#bq"/><use transform="matrix(0.05,0,0,0.05,70.9,0)" xlink:href="#bC"/><use transform="matrix(0.05,0,0,0.05,75.9,0)" xlink:href="#bt"/></g><g id="ad"><use transform="matrix(0.05,0,0,0.05,0,0)" xlink:href="#bL"/><use transform="matrix(0.05,0,0,0.05,12,0)" xlink:href="#bz"/><use transform="matrix(0.05,0,0,0.05,17.95,0)" xlink:href="#bw"/><use transform="matrix(0.05,0,0,0.05,27.950000000000003,0)" xlink:href="#bu"/><use transform="matrix(0.05,0,0,0.05,36.95,0)" xlink:href="#bt"/><use transform="matrix(0.05,0,0,0.05,46.95,0)" xlink:href="#bx"/><use transform="matrix(0.05,0,0,0.05,55.95,0)" xlink:href="#bw"/><use transform="matrix(0.05,0,0,0.05,65.95,0)" xlink:href="#bx"/></g><g id="ae"><use transform="matrix(0.05,0,0,0.05,0,0)" xlink:href="#bx"/><use transform="matrix(0.05,0,0,0.05,9,0)" xlink:href="#bB"/><use transform="matrix(0.05,0,0,0.05,12.949999999999998,0)" xlink:href="#bq"/></g><g id="af"><use transform="matrix(0.05,0,0,0.05,0,0)" xlink:href="#bx"/><use transform="matrix(0.05,0,0,0.05,9,0)" xlink:href="#bt"/><use transform="matrix(0.05,0,0,0.05,19,0)" xlink:href="#bF"/><use transform="matrix(0.05,0,0,0.05,29,0)" xlink:href="#bv"/><use transform="matrix(0.05,0,0,0.05,39,0)" xlink:href="#bB"/><use transform="matrix(0.05,0,0,0.05,42.95,0)" xlink:href="#bE"/><use transform="matrix(0.05,0,0,0.05,57.900000000000006,0)" xlink:href="#bB"/><use transform="matrix(0.05,0,0,0.05,61.85,0)" xlink:href="#bt"/><use transform="matrix(0.05,0,0,0.05,71.85000000000001,0)" xlink:href="#bq"/><use transform="matrix(0.05,0,0,0.05,81.85000000000001,0)" xlink:href="#bC"/><use transform="matrix(0.05,0,0,0.05,86.85000000000001,0)" xlink:href="#bw"/></g><g id="ag"><use transform="matrix(0.05,0,0,0.05,0,0)" xlink:href="#br"/><use transform="matrix(0.05,0,0,0.05,10,0)" xlink:href="#bs"/><use transform="matrix(0.05,0,0,0.05,20,0)" xlink:href="#bt"/><use transform="matrix(0.05,0,0,0.05,30,0)" xlink:href="#bu"/><use transform="matrix(0.05,0,0,0.05,39,0)" xlink:href="#bv"/><use transform="matrix(0.05,0,0,0.05,49,0)" xlink:href="#br"/><use transform="matrix(0.05,0,0,0.05,59,0)" xlink:href="#bs"/><use transform="matrix(0.05,0,0,0.05,69,0)" xlink:href="#bw"/></g><g id="ah"><use transform="matrix(0.05,0,0,0.05,0,0)" xlink:href="#bJ"/><use transform="matrix(0.05,0,0,0.05,12.950000000000001,0)" xlink:href="#bB"/><use transform="matrix(0.05,0,0,0.05,16.900000000000002,0)" xlink:href="#bA"/><use transform="matrix(0.05,0,0,0.05,21.900000000000002,0)" xlink:href="#bB"/><use transform="matrix(0.05,0,0,0.05,25.85,0)" xlink:href="#bu"/><use transform="matrix(0.05,0,0,0.05,34.85,0)" xlink:href="#bv"/><use transform="matrix(0.05,0,0,0.05,44.85,0)" xlink:href="#bD"/><use transform="matrix(0.05,0,0,0.05,48.800000000000004,0)" xlink:href="#bC"/><use transform="matrix(0.05,0,0,0.05,53.800000000000004,0)" xlink:href="#br"/><use transform="matrix(0.05,0,0,0.05,63.800000000000004,0)" xlink:href="#bs"/></g><g id="ai"><use transform="matrix(0.05,0,0,0.05,0,0)" xlink:href="#br"/><use transform="matrix(0.05,0,0,0.05,10,0)" xlink:href="#bs"/><use transform="matrix(0.05,0,0,0.05,20,0)" xlink:href="#bE"/><use transform="matrix(0.05,0,0,0.05,34.95,0)" xlink:href="#bB"/><use transform="matrix(0.05,0,0,0.05,38.900000000000006,0)" xlink:href="#bq"/><use transform="matrix(0.05,0,0,0.05,48.900000000000006,0)" xlink:href="#bB"/><use transform="matrix(0.05,0,0,0.05,52.85,0)" xlink:href="#bx"/><use transform="matrix(0.05,0,0,0.05,61.85,0)" xlink:href="#bC"/><use transform="matrix(0.05,0,0,0.05,66.85000000000001,0)" xlink:href="#bz"/><use transform="matrix(0.05,0,0,0.05,72.80000000000001,0)" xlink:href="#br"/><use transform="matrix(0.05,0,0,0.05,82.80000000000001,0)" xlink:href="#bz"/></g><g id="aj"><use transform="matrix(0.05,0,0,0.05,0,0)" xlink:href="#bB"/><use transform="matrix(0.05,0,0,0.05,3.95,0)" xlink:href="#bq"/><use transform="matrix(0.05,0,0,0.05,13.949999999999998,0)" xlink:href="#bA"/><use transform="matrix(0.05,0,0,0.05,18.95,0)" xlink:href="#bw"/><use transform="matrix(0.05,0,0,0.05,28.950000000000003,0)" xlink:href="#bz"/><use transform="matrix(0.05,0,0,0.05,34.9,0)" xlink:href="#bE"/><use transform="matrix(0.05,0,0,0.05,49.85,0)" xlink:href="#br"/><use transform="matrix(0.05,0,0,0.05,59.85,0)" xlink:href="#bu"/><use transform="matrix(0.05,0,0,0.05,68.85,0)" xlink:href="#bB"/><use transform="matrix(0.05,0,0,0.05,72.8,0)" xlink:href="#bG"/><use transform="matrix(0.05,0,0,0.05,82.8,0)" xlink:href="#bq"/></g><g id="ak"><use transform="matrix(0.05,0,0,0.05,0,0)" xlink:href="#bB"/><use transform="matrix(0.05,0,0,0.05,3.95,0)" xlink:href="#bq"/><use transform="matrix(0.05,0,0,0.05,13.949999999999998,0)" xlink:href="#bx"/><use transform="matrix(0.05,0,0,0.05,22.95,0)" xlink:href="#bC"/><use transform="matrix(0.05,0,0,0.05,27.950000000000003,0)" xlink:href="#bB"/><use transform="matrix(0.05,0,0,0.05,31.899999999999995,0)" xlink:href="#bC"/><use transform="matrix(0.05,0,0,0.05,36.9,0)" xlink:href="#bv"/><use transform="matrix(0.05,0,0,0.05,46.9,0)" xlink:href="#bu"/><use transform="matrix(0.05,0,0,0.05,55.900000000000006,0)" xlink:href="#bB"/><use transform="matrix(0.05,0,0,0.05,59.85,0)" xlink:href="#bw"/><use transform="matrix(0.05,0,0,0.05,69.85,0)" xlink:href="#bq"/><use transform="matrix(0.05,0,0,0.05,79.85,0)" xlink:href="#br"/><use transform="matrix(0.05,0,0,0.05,89.85,0)" xlink:href="#bD"/></g><g id="al"><use transform="matrix(0.05,0,0,0.05,0,0)" xlink:href="#bN"/><use transform="matrix(0.05,0,0,0.05,9,0)" xlink:href="#bv"/><use transform="matrix(0.05,0,0,0.05,19,0)" xlink:href="#bD"/><use transform="matrix(0.05,0,0,0.05,22.95,0)" xlink:href="#bq"/><use transform="matrix(0.05,0,0,0.05,32.95,0)" xlink:href="#bt"/><use transform="matrix(0.05,0,0,0.05,42.95,0)" xlink:href="#bz"/><use transform="matrix(0.05,0,0,0.05,48.900000000000006,0)" xlink:href="#br"/><use transform="matrix(0.05,0,0,0.05,58.900000000000006,0)" xlink:href="#bK"/><use transform="matrix(0.05,0,0,0.05,68.9,0)" xlink:href="#bD"/><use transform="matrix(0.05,0,0,0.05,72.85000000000001,0)" xlink:href="#bt"/></g><g id="am"><use transform="matrix(0.05,0,0,0.05,0,0)" xlink:href="#bz"/><use transform="matrix(0.05,0,0,0.05,5.95,0)" xlink:href="#bB"/><use transform="matrix(0.05,0,0,0.05,9.9,0)" xlink:href="#bt"/><use transform="matrix(0.05,0,0,0.05,19.9,0)" xlink:href="#bx"/><use transform="matrix(0.05,0,0,0.05,28.899999999999995,0)" xlink:href="#bF"/><use transform="matrix(0.05,0,0,0.05,38.9,0)" xlink:href="#bw"/><use transform="matrix(0.05,0,0,0.05,48.9,0)" xlink:href="#bx"/></g><g id="an"><use transform="matrix(0.05,0,0,0.05,0,0)" xlink:href="#bB"/><use transform="matrix(0.05,0,0,0.05,3.95,0)" xlink:href="#bq"/><use transform="matrix(0.05,0,0,0.05,13.949999999999998,0)" xlink:href="#bC"/><use transform="matrix(0.05,0,0,0.05,18.95,0)" xlink:href="#bt"/><use transform="matrix(0.05,0,0,0.05,28.950000000000003,0)" xlink:href="#bF"/><use transform="matrix(0.05,0,0,0.05,38.95,0)" xlink:href="#bz"/><use transform="matrix(0.05,0,0,0.05,44.900000000000006,0)" xlink:href="#br"/><use transform="matrix(0.05,0,0,0.05,54.900000000000006,0)" xlink:href="#bu"/><use transform="matrix(0.05,0,0,0.05,63.900000000000006,0)" xlink:href="#bB"/><use transform="matrix(0.05,0,0,0.05,67.85000000000001,0)" xlink:href="#bG"/><use transform="matrix(0.05,0,0,0.05,77.85000000000001,0)" xlink:href="#bq"/></g><g id="ao"><use transform="matrix(0.05,0,0,0.05,0,0)" xlink:href="#bt"/><use transform="matrix(0.05,0,0,0.05,10,0)" xlink:href="#bq"/><use transform="matrix(0.05,0,0,0.05,20,0)" xlink:href="#bC"/><use transform="matrix(0.05,0,0,0.05,25,0)" xlink:href="#bz"/><use transform="matrix(0.05,0,0,0.05,30.950000000000003,0)" xlink:href="#bt"/></g><g id="ap"><use transform="matrix(0.05,0,0,0.05,0,0)" xlink:href="#bD"/><use transform="matrix(0.05,0,0,0.05,3.95,0)" xlink:href="#br"/><use transform="matrix(0.05,0,0,0.05,13.949999999999998,0)" xlink:href="#bx"/></g><g id="aq"><use transform="matrix(0.05,0,0,0.05,0,0)" xlink:href="#bB"/><use transform="matrix(0.05,0,0,0.05,3.95,0)" xlink:href="#bq"/><use transform="matrix(0.05,0,0,0.05,13.949999999999998,0)" xlink:href="#bx"/><use transform="matrix(0.05,0,0,0.05,22.95,0)" xlink:href="#bC"/><use transform="matrix(0.05,0,0,0.05,27.950000000000003,0)" xlink:href="#bB"/><use transform="matrix(0.05,0,0,0.05,31.899999999999995,0)" xlink:href="#bC"/><use transform="matrix(0.05,0,0,0.05,36.9,0)" xlink:href="#bv"/><use transform="matrix(0.05,0,0,0.05,46.9,0)" xlink:href="#bu"/><use transform="matrix(0.05,0,0,0.05,55.900000000000006,0)" xlink:href="#bB"/><use transform="matrix(0.05,0,0,0.05,59.85,0)" xlink:href="#bG"/><use transform="matrix(0.05,0,0,0.05,69.85,0)" xlink:href="#bq"/></g><path d="M197 0v-115H63V0H30v-248h33v105h134v-105h34V0h-34" id="bV"/><g id="ar"><use transform="matrix(0.05,0,0,0.05,0,0)" xlink:href="#bV"/><use transform="matrix(0.05,0,0,0.05,12.950000000000001,0)" xlink:href="#br"/><use transform="matrix(0.05,0,0,0.05,22.950000000000003,0)" xlink:href="#bM"/></g><g id="as"><use transform="matrix(0.05,0,0,0.05,0,0)" xlink:href="#bE"/><use transform="matrix(0.05,0,0,0.05,14.950000000000001,0)" xlink:href="#bw"/><use transform="matrix(0.05,0,0,0.05,24.950000000000003,0)" xlink:href="#bs"/><use transform="matrix(0.05,0,0,0.05,34.95,0)" xlink:href="#bB"/><use transform="matrix(0.05,0,0,0.05,38.900000000000006,0)" xlink:href="#bA"/><use transform="matrix(0.05,0,0,0.05,43.900000000000006,0)" xlink:href="#bB"/><use transform="matrix(0.05,0,0,0.05,47.85000000000001,0)" xlink:href="#bu"/><use transform="matrix(0.05,0,0,0.05,56.85,0)" xlink:href="#br"/><use transform="matrix(0.05,0,0,0.05,66.85000000000001,0)" xlink:href="#bu"/><use transform="matrix(0.05,0,0,0.05,75.85000000000001,0)" xlink:href="#bB"/><use transform="matrix(0.05,0,0,0.05,79.80000000000001,0)" xlink:href="#bw"/><use transform="matrix(0.05,0,0,0.05,89.80000000000001,0)" xlink:href="#bq"/><use transform="matrix(0.05,0,0,0.05,99.80000000000001,0)" xlink:href="#bt"/><use transform="matrix(0.05,0,0,0.05,109.80000000000001,0)" xlink:href="#bx"/></g><g id="at"><use transform="matrix(0.05,0,0,0.05,0,0)" xlink:href="#bu"/><use transform="matrix(0.05,0,0,0.05,9,0)" xlink:href="#bw"/><use transform="matrix(0.05,0,0,0.05,19,0)" xlink:href="#bq"/><use transform="matrix(0.05,0,0,0.05,29,0)" xlink:href="#bx"/><use transform="matrix(0.05,0,0,0.05,38,0)" xlink:href="#bC"/><use transform="matrix(0.05,0,0,0.05,43,0)" xlink:href="#br"/><use transform="matrix(0.05,0,0,0.05,53,0)" xlink:href="#bq"/><use transform="matrix(0.05,0,0,0.05,63,0)" xlink:href="#bC"/><use transform="matrix(0.05,0,0,0.05,68,0)" xlink:href="#bt"/><use transform="matrix(0.05,0,0,0.05,78,0)" xlink:href="#bx"/></g><g id="au"><use transform="matrix(0.05,0,0,0.05,0,0)" xlink:href="#br"/><use transform="matrix(0.05,0,0,0.05,10,0)" xlink:href="#bD"/></g><g id="av"><use transform="matrix(0.05,0,0,0.05,0,0)" xlink:href="#by"/><use transform="matrix(0.05,0,0,0.05,10,0)" xlink:href="#bz"/><use transform="matrix(0.05,0,0,0.05,15.949999999999998,0)" xlink:href="#bt"/><use transform="matrix(0.05,0,0,0.05,25.950000000000003,0)" xlink:href="#bx"/><use transform="matrix(0.05,0,0,0.05,34.95,0)" xlink:href="#bv"/><use transform="matrix(0.05,0,0,0.05,44.95,0)" xlink:href="#by"/><use transform="matrix(0.05,0,0,0.05,54.95,0)" xlink:href="#bv"/><use transform="matrix(0.05,0,0,0.05,64.95,0)" xlink:href="#bt"/><use transform="matrix(0.05,0,0,0.05,74.95,0)" xlink:href="#bx"/><use transform="matrix(0.05,0,0,0.05,83.95,0)" xlink:href="#bC"/><use transform="matrix(0.05,0,0,0.05,88.95,0)" xlink:href="#bw"/></g><path d="M140-251c81 0 123 46 123 126C263-46 219 4 140 4 59 4 17-45 17-125s42-126 123-126zm0 227c63 0 89-41 89-101s-29-99-89-99c-61 0-89 39-89 99S79-25 140-24" id="bW"/><g id="aw"><use transform="matrix(0.05,0,0,0.05,0,0)" xlink:href="#bL"/><use transform="matrix(0.05,0,0,0.05,12,0)" xlink:href="#bW"/><use transform="matrix(0.05,0,0,0.05,26,0)" xlink:href="#bI"/></g><g id="ax"><use transform="matrix(0.05,0,0,0.05,0,0)" xlink:href="#bx"/><use transform="matrix(0.05,0,0,0.05,9,0)" xlink:href="#bv"/><use transform="matrix(0.05,0,0,0.05,19,0)" xlink:href="#bx"/><use transform="matrix(0.05,0,0,0.05,28,0)" xlink:href="#bu"/><use transform="matrix(0.05,0,0,0.05,37,0)" xlink:href="#bt"/><use transform="matrix(0.05,0,0,0.05,47,0)" xlink:href="#by"/><use transform="matrix(0.05,0,0,0.05,57,0)" xlink:href="#bC"/><use transform="matrix(0.05,0,0,0.05,62,0)" xlink:href="#bB"/><use transform="matrix(0.05,0,0,0.05,65.95,0)" xlink:href="#bK"/><use transform="matrix(0.05,0,0,0.05,75.95,0)" xlink:href="#bD"/><use transform="matrix(0.05,0,0,0.05,79.9,0)" xlink:href="#bt"/><use transform="matrix(0.05,0,0,0.05,89.9,0)" xlink:href="#bx"/></g><use transform="matrix(0.05,0,0,0.05,0,0)" xlink:href="#br" id="ay"/><g id="az"><use transform="matrix(0.05,0,0,0.05,0,0)" xlink:href="#bu"/><use transform="matrix(0.05,0,0,0.05,9,0)" xlink:href="#br"/><use transform="matrix(0.05,0,0,0.05,19,0)" xlink:href="#bE"/><use transform="matrix(0.05,0,0,0.05,33.95,0)" xlink:href="#bK"/><use transform="matrix(0.05,0,0,0.05,43.95,0)" xlink:href="#bB"/><use transform="matrix(0.05,0,0,0.05,47.900000000000006,0)" xlink:href="#bw"/></g><g id="aA"><use transform="matrix(0.05,0,0,0.05,0,0)" xlink:href="#bC"/><use transform="matrix(0.05,0,0,0.05,5,0)" xlink:href="#bw"/><use transform="matrix(0.05,0,0,0.05,15,0)" xlink:href="#bs"/><use transform="matrix(0.05,0,0,0.05,25,0)" xlink:href="#bw"/><use transform="matrix(0.05,0,0,0.05,35,0)" xlink:href="#bx"/></g><g id="aB"><use transform="matrix(0.05,0,0,0.05,0,0)" xlink:href="#bq"/><use transform="matrix(0.05,0,0,0.05,10,0)" xlink:href="#bB"/><use transform="matrix(0.05,0,0,0.05,13.949999999999998,0)" xlink:href="#bN"/><use transform="matrix(0.05,0,0,0.05,22.95,0)" xlink:href="#bt"/><use transform="matrix(0.05,0,0,0.05,32.95,0)" xlink:href="#bD"/><use transform="matrix(0.05,0,0,0.05,36.900000000000006,0)" xlink:href="#bt"/><use transform="matrix(0.05,0,0,0.05,46.900000000000006,0)" xlink:href="#bx"/></g><g id="aC"><use transform="matrix(0.05,0,0,0.05,0,0)" xlink:href="#bL"/><use transform="matrix(0.05,0,0,0.05,12,0)" xlink:href="#bz"/><use transform="matrix(0.05,0,0,0.05,17.95,0)" xlink:href="#bw"/><use transform="matrix(0.05,0,0,0.05,27.950000000000003,0)" xlink:href="#bu"/><use transform="matrix(0.05,0,0,0.05,36.95,0)" xlink:href="#bt"/><use transform="matrix(0.05,0,0,0.05,46.95,0)" xlink:href="#bs"/><use transform="matrix(0.05,0,0,0.05,56.95,0)" xlink:href="#bB"/><use transform="matrix(0.05,0,0,0.05,60.900000000000006,0)" xlink:href="#bE"/><use transform="matrix(0.05,0,0,0.05,75.85000000000001,0)" xlink:href="#bB"/><use transform="matrix(0.05,0,0,0.05,79.80000000000001,0)" xlink:href="#bt"/><use transform="matrix(0.05,0,0,0.05,89.80000000000001,0)" xlink:href="#bq"/><use transform="matrix(0.05,0,0,0.05,99.80000000000001,0)" xlink:href="#bC"/><use transform="matrix(0.05,0,0,0.05,104.80000000000001,0)" xlink:href="#bw"/><use transform="matrix(0.05,0,0,0.05,114.80000000000001,0)" xlink:href="#bx"/></g><g id="aD"><use transform="matrix(0.05,0,0,0.05,0,0)" xlink:href="#bt"/><use transform="matrix(0.05,0,0,0.05,10,0)" xlink:href="#bQ"/><use transform="matrix(0.05,0,0,0.05,13.949999999999998,0)" xlink:href="#bt"/><use transform="matrix(0.05,0,0,0.05,23.95,0)" xlink:href="#bu"/><use transform="matrix(0.05,0,0,0.05,32.95,0)" xlink:href="#bv"/><use transform="matrix(0.05,0,0,0.05,42.95,0)" xlink:href="#bC"/><use transform="matrix(0.05,0,0,0.05,47.95,0)" xlink:href="#br"/><use transform="matrix(0.05,0,0,0.05,57.95,0)" xlink:href="#bs"/><use transform="matrix(0.05,0,0,0.05,67.95,0)" xlink:href="#bw"/><use transform="matrix(0.05,0,0,0.05,77.95,0)" xlink:href="#bx"/></g><g id="aE"><use transform="matrix(0.05,0,0,0.05,0,0)" xlink:href="#by"/><use transform="matrix(0.05,0,0,0.05,10,0)" xlink:href="#br"/><use transform="matrix(0.05,0,0,0.05,20,0)" xlink:href="#bz"/><use transform="matrix(0.05,0,0,0.05,25.950000000000003,0)" xlink:href="#bC"/><use transform="matrix(0.05,0,0,0.05,30.950000000000003,0)" xlink:href="#bB"/><use transform="matrix(0.05,0,0,0.05,34.9,0)" xlink:href="#bz"/></g><g id="aF"><use transform="matrix(0.05,0,0,0.05,0,0)" xlink:href="#bt"/><use transform="matrix(0.05,0,0,0.05,10,0)" xlink:href="#bU"/><use transform="matrix(0.05,0,0,0.05,19,0)" xlink:href="#by"/><use transform="matrix(0.05,0,0,0.05,29,0)" xlink:href="#bt"/><use transform="matrix(0.05,0,0,0.05,39,0)" xlink:href="#bz"/><use transform="matrix(0.05,0,0,0.05,44.95,0)" xlink:href="#bB"/><use transform="matrix(0.05,0,0,0.05,48.900000000000006,0)" xlink:href="#bt"/><use transform="matrix(0.05,0,0,0.05,58.900000000000006,0)" xlink:href="#bq"/><use transform="matrix(0.05,0,0,0.05,68.9,0)" xlink:href="#bu"/><use transform="matrix(0.05,0,0,0.05,77.9,0)" xlink:href="#bB"/><use transform="matrix(0.05,0,0,0.05,81.85000000000001,0)" xlink:href="#br"/></g><g id="aG"><use transform="matrix(0.05,0,0,0.05,0,0)" xlink:href="#bA"/><use transform="matrix(0.05,0,0,0.05,5,0)" xlink:href="#bv"/><use transform="matrix(0.05,0,0,0.05,15,0)" xlink:href="#bq"/><use transform="matrix(0.05,0,0,0.05,25,0)" xlink:href="#bu"/><use transform="matrix(0.05,0,0,0.05,34,0)" xlink:href="#bB"/><use transform="matrix(0.05,0,0,0.05,37.95,0)" xlink:href="#bw"/><use transform="matrix(0.05,0,0,0.05,47.95,0)" xlink:href="#bq"/><use transform="matrix(0.05,0,0,0.05,57.95,0)" xlink:href="#br"/><use transform="matrix(0.05,0,0,0.05,67.95,0)" xlink:href="#bz"/><use transform="matrix(0.05,0,0,0.05,73.9,0)" xlink:href="#bB"/><use transform="matrix(0.05,0,0,0.05,77.85000000000001,0)" xlink:href="#bw"/><use transform="matrix(0.05,0,0,0.05,87.85000000000001,0)" xlink:href="#bx"/></g><g id="aH"><use transform="matrix(0.05,0,0,0.05,0,0)" xlink:href="#bJ"/><use transform="matrix(0.05,0,0,0.05,12.950000000000001,0)" xlink:href="#bB"/><use transform="matrix(0.05,0,0,0.05,16.900000000000002,0)" xlink:href="#bA"/><use transform="matrix(0.05,0,0,0.05,21.900000000000002,0)" xlink:href="#bt"/><use transform="matrix(0.05,0,0,0.05,31.900000000000002,0)" xlink:href="#bz"/><use transform="matrix(0.05,0,0,0.05,37.85,0)" xlink:href="#bt"/><use transform="matrix(0.05,0,0,0.05,47.85,0)" xlink:href="#bq"/><use transform="matrix(0.05,0,0,0.05,57.85,0)" xlink:href="#bC"/><use transform="matrix(0.05,0,0,0.05,62.85,0)" xlink:href="#bt"/><use transform="matrix(0.05,0,0,0.05,72.85,0)" xlink:href="#bx"/></g><path d="M87 75C49 33 22-17 22-94c0-76 28-126 65-167h31c-38 41-64 92-64 168S80 34 118 75H87" id="bX"/><path d="M33-261c38 41 65 92 65 168S71 34 33 75H2C39 34 66-17 66-93S39-220 2-261h31" id="bY"/><g id="aI"><use transform="matrix(0.05,0,0,0.05,0,0)" xlink:href="#bX"/><use transform="matrix(0.05,0,0,0.05,5.95,0)" xlink:href="#bq"/><use transform="matrix(0.05,0,0,0.05,15.949999999999998,0)" xlink:href="#bv"/><use transform="matrix(0.05,0,0,0.05,25.950000000000003,0)" xlink:href="#bt"/><use transform="matrix(0.05,0,0,0.05,35.95,0)" xlink:href="#bN"/><use transform="matrix(0.05,0,0,0.05,44.95,0)" xlink:href="#br"/><use transform="matrix(0.05,0,0,0.05,54.95,0)" xlink:href="#bx"/><use transform="matrix(0.05,0,0,0.05,63.95,0)" xlink:href="#bY"/></g><g id="aJ"><use transform="matrix(0.05,0,0,0.05,0,0)" xlink:href="#bq"/><use transform="matrix(0.05,0,0,0.05,10,0)" xlink:href="#bw"/><use transform="matrix(0.05,0,0,0.05,20,0)" xlink:href="#bz"/><use transform="matrix(0.05,0,0,0.05,25.950000000000003,0)" xlink:href="#bE"/><use transform="matrix(0.05,0,0,0.05,40.9,0)" xlink:href="#br"/><use transform="matrix(0.05,0,0,0.05,50.9,0)" xlink:href="#bC"/><use transform="matrix(0.05,0,0,0.05,55.900000000000006,0)" xlink:href="#bB"/><use transform="matrix(0.05,0,0,0.05,59.85,0)" xlink:href="#bN"/><use transform="matrix(0.05,0,0,0.05,68.85,0)" xlink:href="#br"/><use transform="matrix(0.05,0,0,0.05,78.85,0)" xlink:href="#bx"/></g><g id="aK"><use transform="matrix(0.05,0,0,0.05,0,0)" xlink:href="#by"/><use transform="matrix(0.05,0,0,0.05,10,0)" xlink:href="#br"/><use transform="matrix(0.05,0,0,0.05,20,0)" xlink:href="#bz"/><use transform="matrix(0.05,0,0,0.05,25.950000000000003,0)" xlink:href="#br"/></g><g id="aL"><use transform="matrix(0.05,0,0,0.05,0,0)" xlink:href="#bt"/><use transform="matrix(0.05,0,0,0.05,10,0)" xlink:href="#bD"/></g><g id="aM"><use transform="matrix(0.05,0,0,0.05,0,0)" xlink:href="#bE"/><use transform="matrix(0.05,0,0,0.05,14.950000000000001,0)" xlink:href="#br"/><use transform="matrix(0.05,0,0,0.05,24.950000000000003,0)" xlink:href="#bq"/><use transform="matrix(0.05,0,0,0.05,34.95,0)" xlink:href="#bt"/><use transform="matrix(0.05,0,0,0.05,44.95,0)" xlink:href="#bQ"/><use transform="matrix(0.05,0,0,0.05,48.900000000000006,0)" xlink:href="#bw"/></g><path d="M137 0h-34L2-248h35l83 218 83-218h36" id="bZ"/><g id="aN"><use transform="matrix(0.05,0,0,0.05,0,0)" xlink:href="#bX"/><use transform="matrix(0.05,0,0,0.05,5.95,0)" xlink:href="#bZ"/><use transform="matrix(0.05,0,0,0.05,16.6,0)" xlink:href="#br"/><use transform="matrix(0.05,0,0,0.05,26.6,0)" xlink:href="#bz"/><use transform="matrix(0.05,0,0,0.05,32.550000000000004,0)" xlink:href="#bB"/><use transform="matrix(0.05,0,0,0.05,36.50000000000001,0)" xlink:href="#bw"/><use transform="matrix(0.05,0,0,0.05,46.50000000000001,0)" xlink:href="#bx"/></g><g id="aO"><use transform="matrix(0.05,0,0,0.05,0,0)" xlink:href="#bt"/><use transform="matrix(0.05,0,0,0.05,10,0)" xlink:href="#bq"/><use transform="matrix(0.05,0,0,0.05,20,0)" xlink:href="#bC"/><use transform="matrix(0.05,0,0,0.05,25,0)" xlink:href="#bt"/><use transform="matrix(0.05,0,0,0.05,35,0)" xlink:href="#bx"/></g><g id="aP"><use transform="matrix(0.05,0,0,0.05,0,0)" xlink:href="#bz"/><use transform="matrix(0.05,0,0,0.05,5.95,0)" xlink:href="#bt"/><use transform="matrix(0.05,0,0,0.05,15.949999999999998,0)" xlink:href="#bF"/><use transform="matrix(0.05,0,0,0.05,25.950000000000003,0)" xlink:href="#bv"/><use transform="matrix(0.05,0,0,0.05,35.95,0)" xlink:href="#bD"/><use transform="matrix(0.05,0,0,0.05,39.900000000000006,0)" xlink:href="#br"/><use transform="matrix(0.05,0,0,0.05,49.900000000000006,0)" xlink:href="#bs"/><use transform="matrix(0.05,0,0,0.05,59.900000000000006,0)" xlink:href="#bw"/><use transform="matrix(0.05,0,0,0.05,69.9,0)" xlink:href="#bz"/><use transform="matrix(0.05,0,0,0.05,75.85000000000001,0)" xlink:href="#bt"/><use transform="matrix(0.05,0,0,0.05,85.85000000000001,0)" xlink:href="#bx"/><use transform="matrix(0.05,0,0,0.05,94.85000000000001,0)" xlink:href="#bY"/></g><g id="aQ"><use transform="matrix(0.05,0,0,0.05,0,0)" xlink:href="#bR"/><use transform="matrix(0.05,0,0,0.05,12,0)" xlink:href="#bp"/></g><g id="aR"><use transform="matrix(0.05,0,0,0.05,0,0)" xlink:href="#bu"/><use transform="matrix(0.05,0,0,0.05,9,0)" xlink:href="#br"/><use transform="matrix(0.05,0,0,0.05,19,0)" xlink:href="#bs"/><use transform="matrix(0.05,0,0,0.05,29,0)" xlink:href="#bv"/><use transform="matrix(0.05,0,0,0.05,39,0)" xlink:href="#bu"/><use transform="matrix(0.05,0,0,0.05,48,0)" xlink:href="#bw"/><use transform="matrix(0.05,0,0,0.05,58,0)" xlink:href="#bx"/></g><path d="M145-31C134-9 116 4 85 4 32 4 16-35 15-94c0-59 17-99 70-100 32-1 48 14 60 33 0-11-1-24 2-32h30l-1 268h-32zM93-21c41 0 51-33 51-76s-8-73-50-73c-40 0-46 35-46 75s5 74 45 74" id="ca"/><g id="aS"><use transform="matrix(0.05,0,0,0.05,0,0)" xlink:href="#ca"/><use transform="matrix(0.05,0,0,0.05,10,0)" xlink:href="#bv"/><use transform="matrix(0.05,0,0,0.05,20,0)" xlink:href="#bt"/></g><g id="aT"><use transform="matrix(0.05,0,0,0.05,0,0)" xlink:href="#br"/><use transform="matrix(0.05,0,0,0.05,10,0)" xlink:href="#by"/><use transform="matrix(0.05,0,0,0.05,20,0)" xlink:href="#bw"/><use transform="matrix(0.05,0,0,0.05,30,0)" xlink:href="#bM"/><use transform="matrix(0.05,0,0,0.05,39,0)" xlink:href="#br"/><use transform="matrix(0.05,0,0,0.05,49,0)" xlink:href="#bq"/></g><g id="aU"><use transform="matrix(0.05,0,0,0.05,0,0)" xlink:href="#bD"/><use transform="matrix(0.05,0,0,0.05,3.95,0)" xlink:href="#bw"/><use transform="matrix(0.05,0,0,0.05,13.949999999999998,0)" xlink:href="#bx"/></g><g id="aV"><use transform="matrix(0.05,0,0,0.05,0,0)" xlink:href="#by"/><use transform="matrix(0.05,0,0,0.05,10,0)" xlink:href="#bz"/><use transform="matrix(0.05,0,0,0.05,15.949999999999998,0)" xlink:href="#bw"/><use transform="matrix(0.05,0,0,0.05,25.950000000000003,0)" xlink:href="#bu"/><use transform="matrix(0.05,0,0,0.05,34.95,0)" xlink:href="#bt"/><use transform="matrix(0.05,0,0,0.05,44.95,0)" xlink:href="#bx"/><use transform="matrix(0.05,0,0,0.05,53.95,0)" xlink:href="#bw"/><use transform="matrix(0.05,0,0,0.05,63.95,0)" xlink:href="#bx"/></g><g id="aW"><use transform="matrix(0.05,0,0,0.05,0,0)" xlink:href="#bI"/><use transform="matrix(0.05,0,0,0.05,12,0)" xlink:href="#bD"/><use transform="matrix(0.05,0,0,0.05,15.949999999999998,0)" xlink:href="#bC"/><use transform="matrix(0.05,0,0,0.05,20.95,0)" xlink:href="#br"/></g><g id="aX"><use transform="matrix(0.05,0,0,0.05,0,0)" xlink:href="#bs"/><use transform="matrix(0.05,0,0,0.05,10,0)" xlink:href="#bt"/><use transform="matrix(0.05,0,0,0.05,20,0)" xlink:href="#by"/><use transform="matrix(0.05,0,0,0.05,30,0)" xlink:href="#bt"/><use transform="matrix(0.05,0,0,0.05,40,0)" xlink:href="#bq"/><use transform="matrix(0.05,0,0,0.05,50,0)" xlink:href="#bs"/><use transform="matrix(0.05,0,0,0.05,60,0)" xlink:href="#bt"/><use transform="matrix(0.05,0,0,0.05,70,0)" xlink:href="#bq"/><use transform="matrix(0.05,0,0,0.05,80,0)" xlink:href="#bu"/><use transform="matrix(0.05,0,0,0.05,89,0)" xlink:href="#bB"/><use transform="matrix(0.05,0,0,0.05,92.95,0)" xlink:href="#br"/></g><g id="aY"><use transform="matrix(0.05,0,0,0.05,0,0)" xlink:href="#by"/><use transform="matrix(0.05,0,0,0.05,10,0)" xlink:href="#bz"/><use transform="matrix(0.05,0,0,0.05,15.949999999999998,0)" xlink:href="#bw"/><use transform="matrix(0.05,0,0,0.05,25.950000000000003,0)" xlink:href="#bN"/><use transform="matrix(0.05,0,0,0.05,34.95,0)" xlink:href="#bt"/><use transform="matrix(0.05,0,0,0.05,44.95,0)" xlink:href="#bt"/><use transform="matrix(0.05,0,0,0.05,54.95,0)" xlink:href="#bs"/><use transform="matrix(0.05,0,0,0.05,64.95,0)" xlink:href="#bw"/><use transform="matrix(0.05,0,0,0.05,74.95,0)" xlink:href="#bz"/><use transform="matrix(0.05,0,0,0.05,80.9,0)" xlink:href="#bt"/><use transform="matrix(0.05,0,0,0.05,90.9,0)" xlink:href="#bx"/></g><path d="M106-169C34-169 62-67 57 0H25v-261h32l-1 103c12-21 28-36 61-36 89 0 53 116 60 194h-32v-121c2-32-8-49-39-48" id="cb"/><g id="aZ"><use transform="matrix(0.05,0,0,0.05,0,0)" xlink:href="#cb"/><use transform="matrix(0.05,0,0,0.05,10,0)" xlink:href="#bt"/><use transform="matrix(0.05,0,0,0.05,20,0)" xlink:href="#bz"/><use transform="matrix(0.05,0,0,0.05,25.950000000000003,0)" xlink:href="#bz"/><use transform="matrix(0.05,0,0,0.05,31.899999999999995,0)" xlink:href="#br"/><use transform="matrix(0.05,0,0,0.05,41.9,0)" xlink:href="#bE"/><use transform="matrix(0.05,0,0,0.05,56.85,0)" xlink:href="#bB"/><use transform="matrix(0.05,0,0,0.05,60.800000000000004,0)" xlink:href="#bt"/><use transform="matrix(0.05,0,0,0.05,70.80000000000001,0)" xlink:href="#bq"/><use transform="matrix(0.05,0,0,0.05,80.80000000000001,0)" xlink:href="#bC"/><use transform="matrix(0.05,0,0,0.05,85.80000000000001,0)" xlink:href="#br"/><use transform="matrix(0.05,0,0,0.05,95.80000000000001,0)" xlink:href="#bx"/></g><g id="ba"><use transform="matrix(0.05,0,0,0.05,0,0)" xlink:href="#by"/><use transform="matrix(0.05,0,0,0.05,10,0)" xlink:href="#br"/><use transform="matrix(0.05,0,0,0.05,20,0)" xlink:href="#bz"/><use transform="matrix(0.05,0,0,0.05,25.950000000000003,0)" xlink:href="#br"/></g><g id="bb"><use transform="matrix(0.05,0,0,0.05,0,0)" xlink:href="#bD"/><use transform="matrix(0.05,0,0,0.05,3.95,0)" xlink:href="#br"/></g><g id="bc"><use transform="matrix(0.05,0,0,0.05,0,0)" xlink:href="#bB"/><use transform="matrix(0.05,0,0,0.05,3.95,0)" xlink:href="#bq"/><use transform="matrix(0.05,0,0,0.05,13.949999999999998,0)" xlink:href="#bA"/><use transform="matrix(0.05,0,0,0.05,18.95,0)" xlink:href="#bw"/><use transform="matrix(0.05,0,0,0.05,28.950000000000003,0)" xlink:href="#bz"/><use transform="matrix(0.05,0,0,0.05,34.9,0)" xlink:href="#bE"/><use transform="matrix(0.05,0,0,0.05,49.85,0)" xlink:href="#br"/><use transform="matrix(0.05,0,0,0.05,59.85,0)" xlink:href="#bu"/><use transform="matrix(0.05,0,0,0.05,68.85,0)" xlink:href="#bB"/><use transform="matrix(0.05,0,0,0.05,72.8,0)" xlink:href="#bG"/><use transform="matrix(0.05,0,0,0.05,82.8,0)" xlink:href="#bq"/></g><path d="M190 0L58-211 59 0H30v-248h39L202-35l-2-213h31V0h-41" id="cc"/><g id="bd"><use transform="matrix(0.05,0,0,0.05,0,0)" xlink:href="#cc"/><use transform="matrix(0.05,0,0,0.05,12.950000000000001,0)" xlink:href="#bw"/></g><g id="be"><use transform="matrix(0.05,0,0,0.05,0,0)" xlink:href="#by"/><use transform="matrix(0.05,0,0,0.05,10,0)" xlink:href="#bD"/><use transform="matrix(0.05,0,0,0.05,13.949999999999998,0)" xlink:href="#br"/><use transform="matrix(0.05,0,0,0.05,23.95,0)" xlink:href="#bq"/><use transform="matrix(0.05,0,0,0.05,33.95,0)" xlink:href="#bB"/><use transform="matrix(0.05,0,0,0.05,37.900000000000006,0)" xlink:href="#bA"/><use transform="matrix(0.05,0,0,0.05,42.900000000000006,0)" xlink:href="#bB"/><use transform="matrix(0.05,0,0,0.05,46.85000000000001,0)" xlink:href="#bu"/><use transform="matrix(0.05,0,0,0.05,55.85,0)" xlink:href="#br"/></g><g id="bf"><use transform="matrix(0.05,0,0,0.05,0,0)" xlink:href="#bt"/><use transform="matrix(0.05,0,0,0.05,10,0)" xlink:href="#bx"/><use transform="matrix(0.05,0,0,0.05,19,0)" xlink:href="#bC"/><use transform="matrix(0.05,0,0,0.05,24,0)" xlink:href="#bz"/><use transform="matrix(0.05,0,0,0.05,29.950000000000003,0)" xlink:href="#br"/><use transform="matrix(0.05,0,0,0.05,39.95,0)" xlink:href="#bC"/><use transform="matrix(0.05,0,0,0.05,44.95,0)" xlink:href="#bt"/><use transform="matrix(0.05,0,0,0.05,54.95,0)" xlink:href="#bF"/><use transform="matrix(0.05,0,0,0.05,64.95,0)" xlink:href="#bB"/><use transform="matrix(0.05,0,0,0.05,68.9,0)" xlink:href="#bu"/><use transform="matrix(0.05,0,0,0.05,77.9,0)" xlink:href="#br"/><use transform="matrix(0.05,0,0,0.05,87.9,0)" xlink:href="#bE"/><use transform="matrix(0.05,0,0,0.05,102.85000000000001,0)" xlink:href="#bt"/><use transform="matrix(0.05,0,0,0.05,112.85000000000001,0)" xlink:href="#bq"/><use transform="matrix(0.05,0,0,0.05,122.85000000000001,0)" xlink:href="#bC"/><use transform="matrix(0.05,0,0,0.05,127.85000000000001,0)" xlink:href="#bt"/></g><g id="bg"><use transform="matrix(0.05,0,0,0.05,0,0)" xlink:href="#bt"/><use transform="matrix(0.05,0,0,0.05,10,0)" xlink:href="#bD"/></g><g id="bh"><use transform="matrix(0.05,0,0,0.05,0,0)" xlink:href="#bv"/><use transform="matrix(0.05,0,0,0.05,10,0)" xlink:href="#bx"/><use transform="matrix(0.05,0,0,0.05,19,0)" xlink:href="#bw"/></g><path d="M127-220V0H93v-220H8v-28h204v28h-85" id="cd"/><g id="bi"><use transform="matrix(0.05,0,0,0.05,0,0)" xlink:href="#cd"/><use transform="matrix(0.05,0,0,0.05,10.950000000000001,0)" xlink:href="#bp"/></g><g id="bj"><use transform="matrix(0.05,0,0,0.05,0,0)" xlink:href="#bt"/><use transform="matrix(0.05,0,0,0.05,10,0)" xlink:href="#bU"/><use transform="matrix(0.05,0,0,0.05,19,0)" xlink:href="#bB"/><use transform="matrix(0.05,0,0,0.05,22.95,0)" xlink:href="#bx"/><use transform="matrix(0.05,0,0,0.05,31.950000000000003,0)" xlink:href="#bC"/><use transform="matrix(0.05,0,0,0.05,36.95,0)" xlink:href="#bt"/></g><g id="bk"><use transform="matrix(0.05,0,0,0.05,0,0)" xlink:href="#bu"/><use transform="matrix(0.05,0,0,0.05,9,0)" xlink:href="#br"/><use transform="matrix(0.05,0,0,0.05,19,0)" xlink:href="#by"/><use transform="matrix(0.05,0,0,0.05,29,0)" xlink:href="#br"/><use transform="matrix(0.05,0,0,0.05,39,0)" xlink:href="#bu"/><use transform="matrix(0.05,0,0,0.05,48,0)" xlink:href="#bB"/><use transform="matrix(0.05,0,0,0.05,51.95,0)" xlink:href="#bs"/><use transform="matrix(0.05,0,0,0.05,61.95,0)" xlink:href="#br"/><use transform="matrix(0.05,0,0,0.05,71.95,0)" xlink:href="#bs"/><use transform="matrix(0.05,0,0,0.05,81.95,0)" xlink:href="#bt"/><use transform="matrix(0.05,0,0,0.05,91.95,0)" xlink:href="#bx"/></g><g id="bl"><use transform="matrix(0.05,0,0,0.05,0,0)" xlink:href="#bB"/><use transform="matrix(0.05,0,0,0.05,3.95,0)" xlink:href="#bq"/><use transform="matrix(0.05,0,0,0.05,13.949999999999998,0)" xlink:href="#bx"/><use transform="matrix(0.05,0,0,0.05,22.95,0)" xlink:href="#bC"/><use transform="matrix(0.05,0,0,0.05,27.950000000000003,0)" xlink:href="#bB"/><use transform="matrix(0.05,0,0,0.05,31.899999999999995,0)" xlink:href="#bC"/><use transform="matrix(0.05,0,0,0.05,36.9,0)" xlink:href="#bv"/><use transform="matrix(0.05,0,0,0.05,46.9,0)" xlink:href="#bu"/><use transform="matrix(0.05,0,0,0.05,55.900000000000006,0)" xlink:href="#bB"/><use transform="matrix(0.05,0,0,0.05,59.85,0)" xlink:href="#bw"/><use transform="matrix(0.05,0,0,0.05,69.85,0)" xlink:href="#bq"/><use transform="matrix(0.05,0,0,0.05,79.85,0)" xlink:href="#br"/><use transform="matrix(0.05,0,0,0.05,89.85,0)" xlink:href="#bD"/><use transform="matrix(0.05,0,0,0.05,93.8,0)" xlink:href="#bt"/><use transform="matrix(0.05,0,0,0.05,103.80000000000001,0)" xlink:href="#bx"/></g><path d="M0 4l72-265h28L28 4H0" id="ce"/><g id="bm"><use transform="matrix(0.05,0,0,0.05,0,0)" xlink:href="#bM"/><use transform="matrix(0.05,0,0,0.05,9,0)" xlink:href="#ce"/><use transform="matrix(0.05,0,0,0.05,14,0)" xlink:href="#bw"/></g><g id="bn"><use transform="matrix(0.05,0,0,0.05,0,0)" xlink:href="#by"/><use transform="matrix(0.05,0,0,0.05,10,0)" xlink:href="#bt"/><use transform="matrix(0.05,0,0,0.05,20,0)" xlink:href="#bz"/><use transform="matrix(0.05,0,0,0.05,25.950000000000003,0)" xlink:href="#bx"/><use transform="matrix(0.05,0,0,0.05,34.95,0)" xlink:href="#bw"/><use transform="matrix(0.05,0,0,0.05,44.95,0)" xlink:href="#bq"/><use transform="matrix(0.05,0,0,0.05,54.95,0)" xlink:href="#br"/><use transform="matrix(0.05,0,0,0.05,64.95,0)" xlink:href="#bD"/></g><g id="bo"><use transform="matrix(0.05,0,0,0.05,0,0)" xlink:href="#bu"/><use transform="matrix(0.05,0,0,0.05,9,0)" xlink:href="#br"/><use transform="matrix(0.05,0,0,0.05,19,0)" xlink:href="#bD"/><use transform="matrix(0.05,0,0,0.05,22.95,0)" xlink:href="#bB"/><use transform="matrix(0.05,0,0,0.05,26.899999999999995,0)" xlink:href="#bA"/><use transform="matrix(0.05,0,0,0.05,31.899999999999995,0)" xlink:href="#bB"/><use transform="matrix(0.05,0,0,0.05,35.85,0)" xlink:href="#bu"/><use transform="matrix(0.05,0,0,0.05,44.85,0)" xlink:href="#br"/><use transform="matrix(0.05,0,0,0.05,54.85,0)" xlink:href="#bs"/><use transform="matrix(0.05,0,0,0.05,64.85,0)" xlink:href="#bw"/></g></defs></g></svg>